<svg width="495" height="57" viewBox="0 0 495 57" fill="none" xmlns="http://www.w3.org/2000/svg">
<path d="M37.8113 49.9706H33.5177L6.50964 0H0V54.4693H6.50964V12.1812L29.0856 54.4693H42.2434L64.8194 12.1812V54.4693H71.3291V0H64.8194L37.8113 49.9706Z" fill="white"/>
<path d="M103.394 0.0703125L79.6406 54.4704H86.7043L94.2527 37.1676H136.081L143.906 54.4704H150.97L126.316 0.0703125H103.394V0.0703125ZM96.7457 31.5614L108.034 5.74564H121.815L133.449 31.5614H96.7457V31.5614Z" fill="white"/>
<path d="M230.537 0H220.98L200.898 23.6703H188.778L168.834 0H159.277L183.446 26.854L159.277 54.4693H168.834L188.917 29.9685H201.036L220.98 54.4693H230.537L206.368 26.854L230.537 0Z" fill="white"/>
<path d="M315.153 1.33984H264.461V55.8091H270.971V35.8071H315.153C321.593 35.8071 326.649 34.2844 330.25 31.2391C333.851 28.1938 335.721 24.318 335.721 19.5424C335.721 14.2131 333.851 9.85283 330.181 6.46148C326.441 3.07012 321.455 1.33984 315.153 1.33984V1.33984ZM325.472 27.1557C322.701 29.1628 319.308 30.201 315.153 30.201H270.971V7.01517H315.153C319.308 7.01517 322.771 8.19176 325.472 10.6142C328.242 12.9673 329.557 16.0126 329.557 19.6116C329.557 22.6569 328.172 25.2177 325.472 27.2249V27.1557Z" fill="white"/>
<path d="M409.889 31.2391C413.56 28.1938 415.36 24.318 415.36 19.5424C415.36 14.2131 413.491 9.85283 409.82 6.46148C406.15 3.07012 401.095 1.33984 394.723 1.33984H344.031V55.8091H350.541V35.8071H379.834L405.804 55.8091H415.36L388.837 35.8071H394.723C401.164 35.8071 406.219 34.2844 409.82 31.2391H409.889ZM350.541 7.01517H394.723C398.74 7.01517 402.203 8.19176 404.973 10.6142C407.743 13.0366 409.197 16.0126 409.197 19.5424C409.197 22.5877 407.812 25.1485 405.111 27.1557C402.41 29.1628 398.948 30.201 394.793 30.201H350.61V7.01517H350.541Z" fill="white"/>
<path d="M484.959 7.84761C478.311 2.72598 469.724 0.234375 459.336 0.234375C448.949 0.234375 440.361 2.79519 433.713 7.84761C427.065 12.9692 423.672 19.8904 423.672 28.611C423.672 37.3316 426.996 44.2528 433.713 49.3744C440.361 54.496 448.949 56.9876 459.336 56.9876C469.724 56.9876 478.311 54.4268 484.959 49.3744C491.608 44.2528 495.001 37.3316 495.001 28.611C495.001 19.8904 491.677 12.9692 484.959 7.84761V7.84761ZM480.181 44.5296C474.641 48.7515 467.716 50.8278 459.336 50.8278C450.957 50.8278 444.032 48.7515 438.492 44.5296C432.952 40.3077 430.182 34.9784 430.182 28.611C430.182 22.2436 432.952 16.8451 438.492 12.6924C444.032 8.47052 450.957 6.39418 459.336 6.39418C467.716 6.39418 474.641 8.47052 480.181 12.6924C485.721 16.9143 488.491 22.2436 488.491 28.611C488.491 34.9784 485.721 40.3769 480.181 44.5296V44.5296Z" fill="white"/>
</svg>
