<svg width="320" height="1277" viewBox="0 0 320 1277" fill="none" xmlns="http://www.w3.org/2000/svg">
<path d="M73.8333 303.5C73.8333 304.973 75.0272 306.167 76.5 306.167C77.9728 306.167 79.1667 304.973 79.1667 303.5C79.1667 302.027 77.9728 300.833 76.5 300.833C75.0272 300.833 73.8333 302.027 73.8333 303.5ZM16.5 303.5V303H16V303.5H16.5ZM16.5 658H16V658.5H16.5V658ZM135.833 658C135.833 659.473 137.027 660.667 138.5 660.667C139.973 660.667 141.167 659.473 141.167 658C141.167 656.527 139.973 655.333 138.5 655.333C137.027 655.333 135.833 656.527 135.833 658ZM76.5 303H16.5V304H76.5V303ZM16 303.5V658H17V303.5H16ZM16.5 658.5H138.5V657.5H16.5V658.5Z" fill="white"/>
<path d="M280.333 1121.5C280.333 1122.97 281.527 1124.17 283 1124.17C284.473 1124.17 285.667 1122.97 285.667 1121.5C285.667 1120.03 284.473 1118.83 283 1118.83C281.527 1118.83 280.333 1120.03 280.333 1121.5ZM283 769.5H283.5V769H283V769.5ZM159.833 769.5C159.833 770.973 161.027 772.167 162.5 772.167C163.973 772.167 165.167 770.973 165.167 769.5C165.167 768.027 163.973 766.833 162.5 766.833C161.027 766.833 159.833 768.027 159.833 769.5ZM283.5 1121.5V769.5H282.5V1121.5H283.5ZM283 769H162.5V770H283V769Z" fill="white"/>
<path d="M158.333 819C158.333 820.473 159.527 821.667 161 821.667C162.473 821.667 163.667 820.473 163.667 819C163.667 817.527 162.473 816.333 161 816.333C159.527 816.333 158.333 817.527 158.333 819ZM40.5 819V818.5H40V819H40.5ZM37.8333 1027C37.8333 1028.47 39.0272 1029.67 40.5 1029.67C41.9728 1029.67 43.1667 1028.47 43.1667 1027C43.1667 1025.53 41.9728 1024.33 40.5 1024.33C39.0272 1024.33 37.8333 1025.53 37.8333 1027ZM161 818.5H40.5V819.5H161V818.5ZM40 819V1027H41V819H40Z" fill="white"/>
<path d="M72.8333 367C72.8333 368.473 74.0272 369.667 75.5 369.667C76.9728 369.667 78.1667 368.473 78.1667 367C78.1667 365.527 76.9728 364.333 75.5 364.333C74.0272 364.333 72.8333 365.527 72.8333 367ZM75.5 678.5H75V679H75.5V678.5ZM137.833 678.5C137.833 679.973 139.027 681.167 140.5 681.167C141.973 681.167 143.167 679.973 143.167 678.5C143.167 677.027 141.973 675.833 140.5 675.833C139.027 675.833 137.833 677.027 137.833 678.5ZM75 367V678.5H76V367H75ZM75.5 679H140.5V678H75.5V679Z" fill="white"/>
<path d="M246.5 505.5H297V702H179.5" stroke="white"/>
</svg>
