<svg width="192" height="43" viewBox="0 0 192 43" fill="none" xmlns="http://www.w3.org/2000/svg">
<g clip-path="url(#clip0_324_926)">
<path d="M27.694 10.0493C27.897 10.2547 28.0581 10.4985 28.168 10.767C28.2779 11.0354 28.3345 11.3231 28.3345 11.6137C28.3345 11.9043 28.2779 12.192 28.168 12.4604C28.0581 12.7288 27.897 12.9727 27.694 13.1781L20.8006 20.1542V30.0048C20.7775 30.5809 20.5352 31.1256 20.1244 31.525C19.7136 31.9243 19.1663 32.1473 18.5968 32.1473C18.0273 32.1473 17.48 31.9243 17.0692 31.525C16.6584 31.1256 16.4161 30.5809 16.393 30.0048V20.0989L9.55057 13.1781C9.1408 12.7627 8.91079 12.1995 8.91113 11.6124C8.91147 11.0253 9.14214 10.4624 9.55238 10.0475C9.96263 9.63257 10.5189 9.39968 11.0987 9.40002C11.6785 9.40037 12.2345 9.63393 12.6442 10.0493L18.4021 15.8793H18.8461L24.604 10.0493C24.8068 9.84373 25.0476 9.68064 25.3127 9.56937C25.5778 9.45809 25.862 9.40082 26.149 9.40082C26.436 9.40082 26.7201 9.45809 26.9852 9.56937C27.2503 9.68064 27.4912 9.84373 27.694 10.0493Z" fill="#E03638"/>
<path d="M18.5365 3.61889e-07C22.2036 -0.000728536 25.7885 1.09964 28.8378 3.16195C31.8872 5.22425 34.2641 8.15586 35.6679 11.586C37.0718 15.0162 37.4394 18.7908 36.7245 22.4326C36.0095 26.0743 34.244 29.4196 31.6513 32.0454C29.0585 34.6711 25.755 36.4594 22.1585 37.184C18.5619 37.9087 14.834 37.5371 11.446 36.1164C8.058 34.6957 5.16221 32.2895 3.12483 29.2023C1.08745 26.1151 7.06592e-08 22.4855 0 18.7725C-9.47349e-08 13.7944 1.95283 9.02007 5.42899 5.49964C8.90516 1.97922 13.62 0.000977617 18.5365 3.61889e-07ZM27.6937 13.1783C28.1035 12.7634 28.3337 12.2007 28.3337 11.614C28.3337 11.0272 28.1035 10.4645 27.6937 10.0496C27.284 9.6347 26.7282 9.40161 26.1487 9.40161C25.5692 9.40161 25.0135 9.6347 24.6037 10.0496L18.8459 15.8796H18.4018L12.644 10.0496C12.2342 9.63421 11.6783 9.40065 11.0984 9.4003C10.5186 9.39996 9.96239 9.63285 9.55214 10.0478C9.14189 10.4626 8.91123 11.0256 8.91089 11.6127C8.91055 12.1998 9.14056 12.763 9.55032 13.1783L16.3928 20.0992V30.0051C16.4159 30.5812 16.6582 31.1259 17.069 31.5252C17.4797 31.9246 18.0271 32.1476 18.5966 32.1476C19.166 32.1476 19.7134 31.9246 20.1241 31.5252C20.5349 31.1259 20.7772 30.5812 20.8003 30.0051V20.1545L27.6937 13.1783Z" fill="white"/>
<path d="M70.9281 7.31873H62.6298L59.6963 29.3527H65.6288L65.9273 25.3431H67.9291L68.2202 29.3379H74.2147L70.9281 7.31873ZM67.9072 21.3226H65.9273L66.7862 12.2127C66.7862 12.2127 67.9837 21.271 67.9072 21.3226Z" fill="white"/>
<path d="M132.733 25.3172C132.841 26.0951 133.149 26.8308 133.625 27.451C134.218 28.1988 135 28.7695 135.889 29.1019C137.001 29.5446 138.188 29.76 139.383 29.7358C140.443 29.7534 141.497 29.5696 142.491 29.1941C143.319 28.8748 144.047 28.335 144.598 27.6315C145.144 26.9387 145.461 25.6305 145.57 24.9745C145.716 23.9385 145.773 22.8917 145.741 21.8458V7.29651H139.99V23.6773C140.032 24.3523 139.978 25.0299 139.83 25.6894C139.777 25.8274 139.681 25.9439 139.556 26.0205C139.431 26.0972 139.284 26.1298 139.139 26.1132C139.007 26.1279 138.874 26.1003 138.758 26.0341C138.642 25.968 138.55 25.8668 138.495 25.7447C138.362 25.1591 138.311 24.5573 138.345 23.9574V7.30388H132.595V20.2021C132.595 22.616 132.638 24.5691 132.726 25.3099" fill="white"/>
<path d="M190.213 7.29297H184.47V29.3416H190.213V7.29297Z" fill="white"/>
<path d="M172.994 19.9405H174.715V29.3378H180.455V7.29651H174.715V15.146H172.994V7.29651H167.25V29.3378H172.994V19.9405Z" fill="white"/>
<path d="M152.456 28.8661C153.752 29.4945 155.18 29.7942 156.616 29.7395C158.047 29.7856 159.463 29.4297 160.707 28.7114C161.665 28.1847 162.419 27.344 162.844 26.327C163.167 25.4241 163.328 23.2425 163.328 21.0793V20.2169H157.577V23.5336C157.619 24.2691 157.553 25.0069 157.38 25.7226C157.288 25.8656 157.161 25.9829 157.013 26.0641C156.864 26.1453 156.698 26.1878 156.529 26.1878C156.36 26.1878 156.194 26.1453 156.045 26.0641C155.896 25.9829 155.77 25.8656 155.677 25.7226C155.546 25.4168 155.506 24.7534 155.506 23.7363V13.3919C155.506 12.3306 155.546 11.2729 155.677 10.9486C155.808 10.6243 156.077 10.4843 156.547 10.4843C157.017 10.4843 157.275 10.6096 157.388 10.8528C157.501 11.096 157.577 12.1463 157.577 13.1966V16.8413H163.317V14.8623C163.317 12.9055 163.138 11.1071 162.796 10.1858C162.377 9.17332 161.609 8.34957 160.634 7.86776C159.373 7.20879 157.965 6.8926 156.547 6.95014C155.383 6.92676 154.226 7.12812 153.137 7.54346C152.252 7.88204 151.471 8.45316 150.877 9.19812C150.37 9.82389 150.036 10.574 149.908 11.3724C149.774 12.6181 149.717 13.8711 149.737 15.124V21.2193C149.737 23.272 149.923 25.4389 150.28 26.4634C150.668 27.5232 151.452 28.3861 152.463 28.8661" fill="white"/>
<path d="M82.1794 29.3268L82.1757 14.8217L84.2103 29.3231H87.6752L89.8371 14.877V29.3231H94.8889L94.8598 7.29651H87.4241L86.0082 17.5635L84.5924 7.29651H77.1567L77.1604 29.3231L82.1794 29.3268Z" fill="white"/>
<path d="M49.3532 29.3453H54.6598V21.3263L58.8599 7.31506H53.5788L52.1084 15.9716L50.587 7.31506H45.3169L49.3532 21.3263V29.3453Z" fill="white"/>
<path d="M104.18 25.3356H106.182L106.469 29.3304H112.463L109.188 7.3075H100.882L97.9487 29.3414H103.881L104.18 25.3356ZM105.035 12.2162C105.035 12.2162 106.232 21.2782 106.16 21.3224H104.18L105.035 12.2162Z" fill="white"/>
<path d="M116.155 27.3369C116.613 28.063 117.249 28.6571 118 29.0615C118.833 29.5039 119.761 29.7305 120.701 29.7212C121.512 29.7212 122.371 29.5996 122.921 29.1979C123.575 28.7814 124.098 28.186 124.431 27.4806L124.959 29.3232H128.599V17.6558H121.957V20.5855H122.976V23.6037C123.019 24.2732 122.941 24.9451 122.746 25.5864C122.675 25.7513 122.554 25.8891 122.4 25.9798C122.246 26.0705 122.068 26.1096 121.891 26.0913C121.731 26.1087 121.571 26.075 121.431 25.995C121.291 25.915 121.18 25.7928 121.112 25.6453C120.956 25.0359 120.893 24.4057 120.927 23.7769V13.0124C120.927 11.9363 120.996 11.2583 121.112 11.004C121.203 10.8705 121.328 10.7639 121.473 10.6953C121.618 10.6266 121.779 10.5983 121.938 10.6133C122.35 10.6133 122.666 10.6981 122.797 11.004C122.917 11.4608 122.977 11.9317 122.976 12.4044C122.976 12.6476 122.976 13.0272 122.976 13.3257V15.0982H128.602V14.6192C128.602 12.8945 128.42 11.3025 128.078 10.3775C127.736 9.45249 127.012 8.68597 125.895 8.01526C124.611 7.28756 123.158 6.91991 121.687 6.95023C120.194 6.91293 118.725 7.34414 117.483 8.18478C116.392 8.94393 115.74 9.78416 115.514 10.6944C115.236 12.2366 115.114 13.8036 115.15 15.371V21.7538C115.127 22.9232 115.183 24.093 115.318 25.2547C115.433 26.0028 115.714 26.7147 116.14 27.3369" fill="white"/>
</g>
<defs>
<clipPath id="clip0_324_926">
<rect width="192" height="42.0963" fill="white"/>
</clipPath>
</defs>
</svg>
