<svg width="137" height="104" viewBox="0 0 137 104" fill="none" xmlns="http://www.w3.org/2000/svg">
<path d="M76.557 103.937L97.3727 31.7758L104.866 61.7505C95.615 61.7505 88.0288 59.0676 82.1079 53.7017C76.1869 48.3359 73.2265 40.9347 73.2265 31.4983C73.2265 22.0618 76.2794 14.4756 82.3854 8.73974C88.3063 3.18888 95.8 0.413443 104.866 0.413443C113.933 0.413442 121.519 3.18887 127.625 8.73974C133.546 14.4756 136.506 22.0618 136.506 31.4983C136.506 34.0887 136.321 36.6791 135.951 39.2695C135.396 41.8599 134.471 45.0054 133.176 48.706C131.881 52.4065 129.938 57.2173 127.347 63.1382L109.585 103.937L76.557 103.937ZM3.84069 103.937L24.6564 31.7758L32.1501 61.7505C22.8986 61.7505 15.3125 59.0676 9.39154 53.7018C3.47062 48.3359 0.510159 40.9348 0.510158 31.4983C0.510158 22.0618 3.56313 14.4756 9.66908 8.73975C15.59 3.18888 23.0837 0.41345 32.1501 0.413449C41.2165 0.413448 48.8027 3.18888 54.9086 8.73974C60.8295 14.4756 63.79 22.0618 63.79 31.4983C63.79 34.0887 63.605 36.6791 63.2349 39.2695C62.6798 41.8599 61.7547 45.0054 60.4595 48.706C59.1643 52.4065 57.2215 57.2173 54.6311 63.1382L36.8683 103.937L3.84069 103.937Z" fill="white" fill-opacity="0.31"/>
</svg>
