<svg width="73" height="55" viewBox="0 0 73 55" fill="none" xmlns="http://www.w3.org/2000/svg">
<path d="M40.6639 54.8987L51.5701 17.0905L55.4963 32.7955C50.6491 32.7955 46.6744 31.3898 43.5722 28.5784C40.47 25.767 38.9189 21.8893 38.9189 16.9451C38.9189 12.001 40.5185 8.02627 43.7176 5.02101C46.8198 2.11269 50.7461 0.658526 55.4963 0.658525C60.2466 0.658525 64.2213 2.11269 67.4204 5.02101C70.5227 8.02627 72.0738 12.001 72.0738 16.9451C72.0738 18.3023 71.9768 19.6596 71.7829 21.0168C71.4921 22.374 71.0074 24.022 70.3288 25.9609C69.6502 27.8998 68.6322 30.4203 67.275 33.5226L57.9684 54.8987L40.6639 54.8987ZM2.5649 54.8987L13.4711 17.0905L17.3973 32.7955C12.5501 32.7955 8.57542 31.3898 5.47321 28.5784C2.371 25.767 0.819896 21.8893 0.819896 16.9451C0.819895 12.001 2.41947 8.02628 5.61862 5.02101C8.72083 2.11269 12.6471 0.658529 17.3973 0.658529C22.1476 0.658528 26.1223 2.11269 29.3214 5.02101C32.4237 8.02627 33.9748 12.001 33.9748 16.9451C33.9748 18.3023 33.8778 19.6596 33.6839 21.0168C33.3931 22.374 32.9084 24.022 32.2298 25.9609C31.5512 27.8998 30.5332 30.4203 29.176 33.5226L19.8694 54.8987L2.5649 54.8987Z" fill="white" fill-opacity="0.31"/>
</svg>
