<svg width="130" height="71" viewBox="0 0 130 71" fill="none" xmlns="http://www.w3.org/2000/svg">
<g filter="url(#filter0_d_441_1675)">
<path d="M17.9345 10.2205C18.8265 10.3016 19.2928 10.7881 19.3333 11.6802L19.0292 59.2412C18.9076 60.0521 18.4819 60.5184 17.752 60.64C16.9005 60.5589 16.4343 60.0926 16.3532 59.2412L16.6573 11.6802C16.7384 10.8692 17.1641 10.3827 17.9345 10.2205ZM39.8296 21.4113C39.8296 19.83 39.8296 18.269 39.8296 16.7282C39.8296 15.1469 39.8093 13.5656 39.7687 11.9843C39.8093 11.3355 40.1539 10.8895 40.8027 10.6462C41.6947 10.6057 42.2421 11.0517 42.4448 11.9843C42.4854 13.5656 42.5056 15.1469 42.5056 16.7282C42.5056 18.269 42.5056 19.83 42.5056 21.4113H55.0345C55.9671 21.5329 56.3928 22.06 56.3117 22.9926L54.5479 36.1905H59.8392C60.6502 36.3121 61.0962 36.7784 61.1773 37.5893C61.0962 38.3597 60.6502 38.8057 59.8392 38.9274H43.5396C43.8639 39.8599 44.2289 40.7925 44.6343 41.7251C45.0398 42.6171 45.4858 43.4889 45.9723 44.3403C49.0539 50.5845 54.0208 54.4769 60.8732 56.0177C61.7247 56.1393 62.1707 56.6462 62.2112 57.5382C61.9274 58.3897 61.3597 58.7343 60.5083 58.5721C52.9666 56.9097 47.3307 52.6726 43.6004 45.8608C43.1949 45.131 42.8097 44.4011 42.4448 43.6713C42.1204 42.9415 41.8163 42.1914 41.5325 41.421C41.2487 42.7996 40.8432 44.1781 40.3161 45.5567C39.789 46.8948 39.1808 48.2125 38.4915 49.51C35.8155 54.4567 31.8216 57.6598 26.5101 59.1195C25.7397 59.2412 25.1923 58.9573 24.8679 58.268C24.7463 57.376 25.0707 56.7881 25.841 56.5043C30.4633 55.2879 33.9301 52.551 36.2412 48.2936C36.971 46.7934 37.5995 45.2729 38.1266 43.7321C38.6537 42.1508 39.0389 40.5492 39.2822 38.9274H29.1861C28.3752 38.9274 27.8684 38.5219 27.6656 37.711C27.7467 36.9001 28.1522 36.3932 28.882 36.1905H39.5863C39.6268 35.9878 39.6471 35.8053 39.6471 35.6431C39.6471 35.4809 39.6471 35.3187 39.6471 35.1566V34.7916C39.6877 33.0076 39.7079 31.2438 39.7079 29.5003C39.7485 27.7163 39.7687 25.9322 39.7687 24.1482H29.916C29.105 24.1076 28.6387 23.7022 28.5171 22.9318C28.5171 22.0803 28.9023 21.5735 29.6727 21.4113H39.8296ZM23.2258 18.0662C24.2394 17.9851 24.7868 18.492 24.8679 19.5867C24.8274 20.4787 24.8274 21.3708 24.8679 22.2628C24.949 23.1143 25.0301 24.0063 25.1112 24.9388C25.2328 27.7366 26.0032 30.3315 27.4223 32.7238C28.0711 33.3725 28.0711 34.0415 27.4223 34.7308C26.6925 35.2174 26.0438 35.1363 25.4761 34.4875C23.4893 31.6493 22.4149 28.5678 22.2527 25.2429C22.2121 24.2293 22.1716 23.2562 22.131 22.3236C22.131 21.3505 22.1513 20.3976 22.1919 19.4651C22.1919 18.7758 22.5365 18.3095 23.2258 18.0662ZM11.9741 18.1879C12.9878 18.0662 13.5555 18.492 13.6771 19.4651C13.7582 20.3571 13.7785 21.2694 13.7379 22.202C13.6974 23.094 13.6365 24.0063 13.5555 24.9388C13.5555 28.2637 12.6229 31.4466 10.7578 34.4875C10.1901 35.0552 9.54136 35.1363 8.81152 34.7308C8.24387 34.1632 8.16278 33.5347 8.56824 32.8454C9.98737 30.3315 10.7983 27.5744 11.001 24.5739C11.1227 22.9521 11.1227 21.3302 11.001 19.7084C11.001 18.9785 11.3254 18.4717 11.9741 18.1879ZM42.4448 24.1482C42.4448 25.8917 42.4245 27.6555 42.384 29.4395C42.384 31.183 42.3637 32.9468 42.3232 34.7308C42.4448 35.2579 42.5664 35.7445 42.6881 36.1905H51.811L53.4532 24.1482H42.4448ZM104.298 30.2302L104.359 26.3985H93.5333C93.0062 35.2376 93.3712 44.016 94.6281 52.7334C94.7092 53.666 94.324 54.2742 93.4725 54.558C92.54 54.558 92.0331 54.0715 91.952 53.0984C90.6951 43.7321 90.3302 34.3659 90.8573 24.9997C90.8978 24.3104 91.2627 23.8644 91.952 23.6616C92.0737 23.54 92.1548 23.54 92.1953 23.6616H98.2773L97.1217 17.2756H91.1006C90.2491 17.3972 89.722 17.0323 89.5192 16.1808C89.5192 15.3699 89.8842 14.8428 90.614 14.5995H104.177V10.1597C104.258 9.42983 104.562 8.98381 105.089 8.82163C106.103 8.78108 106.691 9.22709 106.853 10.1597V14.5995H119.503C120.314 14.7211 120.76 15.1671 120.841 15.9375C120.76 16.7485 120.314 17.1945 119.503 17.2756H114.942L113.421 23.6616H119.017C119.787 23.7022 120.233 24.1482 120.355 24.9997C120.76 29.9058 120.801 34.7714 120.476 39.5964C120.193 44.4214 119.584 49.2464 118.652 54.0715C118.287 54.9635 117.638 55.2271 116.706 54.8621L111.658 52.1861C110.847 51.6995 110.624 51.0305 110.989 50.179C111.556 49.4086 112.225 49.287 112.996 49.8141L116.158 51.5171C117.618 43.2861 118.104 34.9133 117.618 26.3985H107.096L107.035 30.2302H114.455C115.307 30.3113 115.753 30.737 115.793 31.5074C115.672 32.3183 115.226 32.7846 114.455 32.9062H106.974L106.853 36.677L111.414 36.6162C112.225 36.6568 112.692 37.1028 112.813 37.9543L112.327 47.5638C112.286 48.3747 111.84 48.8207 110.989 48.9018L100.406 48.6585C99.5545 48.5369 99.1085 48.1111 99.0679 47.3813L98.6422 38.1975C98.6827 37.3055 99.1085 36.819 99.9194 36.7379L104.177 36.677L104.238 32.9062H97.1825C96.4121 32.8251 95.9256 32.3994 95.7229 31.629C95.7229 30.737 96.1689 30.2707 97.0609 30.2302H104.298ZM72.6114 13.748C73.179 13.6264 73.6453 13.8088 74.0102 14.2954C77.0918 17.6202 80.8626 20.053 85.3227 21.5938C86.1336 21.9587 86.4377 22.5466 86.235 23.3575C85.789 24.209 85.1808 24.4726 84.4104 24.1482C79.5448 22.3641 75.3483 19.6273 71.8207 15.9375C71.3747 14.9239 71.6383 14.194 72.6114 13.748ZM112.083 17.2756H100.041L101.197 23.6616H110.563L112.083 17.2756ZM86.235 31.0816C87.573 31.5682 87.8568 32.4197 87.0865 33.6361C85.4646 34.7308 83.863 36.0689 82.2817 37.6502C81.3491 38.6638 80.5179 39.8194 79.7881 41.1169C79.3015 41.8873 79.2813 42.6374 79.7273 43.3672C80.6193 44.2592 81.6735 45.0296 82.8899 45.6784C83.6197 46.1244 84.2279 46.7934 84.7145 47.6854C85.201 48.5369 85.3227 49.5303 85.0794 50.6656C84.8767 51.436 84.5726 52.1861 84.1671 52.9159C83.8022 53.6457 83.3359 54.335 82.7683 54.9838C84.8767 54.7405 86.9243 54.7608 88.911 55.0446C90.9384 55.2879 92.9049 55.7744 94.8106 56.5043C96.8379 57.4368 98.8855 58.1261 100.953 58.5721C103.021 59.0587 105.15 59.3425 107.339 59.4236C111.759 59.5047 115.814 58.3694 119.503 56.0177C121.166 56.0177 121.673 56.7678 121.024 58.268C118.997 59.6466 116.848 60.6603 114.577 61.309C112.347 61.9983 110.015 62.3227 107.583 62.2821C105.109 62.201 102.717 61.8969 100.406 61.3698C98.0948 60.8427 95.8445 60.0521 93.655 58.9979C90.0463 57.6598 86.2553 57.2746 82.2817 57.8423C81.1869 57.8828 80.0922 57.9842 78.9974 58.1464C77.9027 58.3086 76.8282 58.491 75.774 58.6938H75.5915C75.551 58.7343 75.5104 58.7546 75.4699 58.7546C75.4699 58.7546 75.4496 58.7749 75.4091 58.8154C74.6387 58.8154 74.1116 58.491 73.8278 57.8423C73.7061 56.9503 74.071 56.3826 74.9225 56.1393H75.1658L75.4091 56.0177C78.8961 55.5312 81.2275 53.5444 82.4033 50.0574C82.525 49.733 82.4844 49.3681 82.2817 48.9626C82.079 48.5977 81.7546 48.2936 81.3086 48.0503C80.5382 47.6449 79.8286 47.1786 79.1799 46.6515C78.5717 46.1244 77.9838 45.5567 77.4161 44.9485C76.5647 43.3267 76.5241 41.6845 77.2945 40.0221C78.0243 38.4003 79.0583 36.9811 80.3963 35.7648C80.599 35.4809 80.8423 35.2376 81.1261 35.0349C81.41 34.7916 81.6938 34.5686 81.9776 34.3659L71.395 35.5215C70.584 35.5215 70.0569 35.1363 69.8137 34.3659C69.7731 33.555 70.1583 33.0279 70.9692 32.7846L86.235 31.0816ZM101.562 39.4748L101.683 45.9216L109.711 46.1041L109.955 39.2315L101.562 39.4748Z" fill="#01F0FF"/>
</g>
<defs>
<filter id="filter0_d_441_1675" x="0.163542" y="0.963346" width="129.63" height="69.1768" filterUnits="userSpaceOnUse" color-interpolation-filters="sRGB">
<feFlood flood-opacity="0" result="BackgroundImageFix"/>
<feColorMatrix in="SourceAlpha" type="matrix" values="0 0 0 0 0 0 0 0 0 0 0 0 0 0 0 0 0 0 127 0" result="hardAlpha"/>
<feOffset/>
<feGaussianBlur stdDeviation="3.8987"/>
<feComposite in2="hardAlpha" operator="out"/>
<feColorMatrix type="matrix" values="0 0 0 0 0 0 0 0 0 0.94 0 0 0 0 1 0 0 0 1 0"/>
<feBlend mode="normal" in2="BackgroundImageFix" result="effect1_dropShadow_441_1675"/>
<feBlend mode="normal" in="SourceGraphic" in2="effect1_dropShadow_441_1675" result="shape"/>
</filter>
</defs>
</svg>
