<svg width="374" height="71" viewBox="0 0 374 71" fill="none" xmlns="http://www.w3.org/2000/svg">
<g filter="url(#filter0_d_348_1755)">
<path d="M33.4512 56.0656L33.3888 34.4128L15.9168 34.3504C14.8768 34.3088 14.3568 33.872 14.3568 33.04C14.3568 32.208 14.8768 31.792 15.9168 31.792L33.4512 31.8544L33.576 14.944L12.2976 14.8816C11.0912 14.8816 10.5296 14.4656 10.6128 13.6336C10.696 12.8016 11.1952 12.3648 12.1104 12.3232L57.7248 12.3856C58.5152 12.5104 58.952 12.9264 59.0352 13.6336C59.1184 14.3408 58.6816 14.7776 57.7248 14.944L36.1344 15.0688L36.0096 31.9168L54.2928 31.9792C55.3744 32.0208 55.8736 32.4576 55.7904 33.2896C55.7488 33.9968 55.2496 34.392 54.2928 34.4752L35.9472 34.4128L36.0096 56.0656L58.0368 56.3152C59.0352 56.232 59.5344 56.6272 59.5344 57.5008C59.5344 58.3328 59.0768 58.7904 58.1616 58.8736L10.3632 58.5616C9.4064 58.4784 8.928 58.0208 8.928 57.1888C8.928 56.3152 9.448 55.92 10.488 56.0032L33.4512 56.0656ZM121.248 10.7008C122.08 10.8256 122.538 11.3248 122.621 12.1984L121.498 24.304C121.373 25.136 120.894 25.552 120.062 25.552C119.23 25.4272 118.814 24.9488 118.814 24.1168L119.688 13.4464L72.576 13.5712L73.4496 23.4928C73.616 24.4912 73.2 25.1152 72.2016 25.3648C71.2032 25.24 70.704 24.6784 70.704 23.68L69.768 12.3856C69.8096 11.512 70.2672 11.0128 71.1408 10.888L121.248 10.7008ZM111.077 28.2976C111.035 26.592 110.994 24.8864 110.952 23.1808C110.952 21.4752 110.91 19.7488 110.827 18.0016C110.827 17.2528 111.16 16.7952 111.826 16.6288C112.824 16.504 113.386 16.8992 113.51 17.8144C113.677 21.2672 113.802 24.7616 113.885 28.2976H119.813C120.603 28.3392 121.061 28.8176 121.186 29.7328C121.061 30.4816 120.603 30.9184 119.813 31.0432H113.885C113.926 31.8336 113.947 32.6032 113.947 33.352C113.947 34.0592 113.947 34.808 113.947 35.5984C113.864 41.5472 113.614 47.4752 113.198 53.3824C112.741 54.3808 112.013 54.672 111.014 54.256L104.587 50.6992C103.88 50.2 103.714 49.576 104.088 48.8272C104.504 48.1616 105.107 47.9952 105.898 48.328L110.453 50.7616C110.661 47.4752 110.806 44.1888 110.89 40.9024C111.014 37.616 111.077 34.3296 111.077 31.0432H96.8496C96.0176 31.0432 95.4976 30.6688 95.2896 29.92C95.2896 29.0048 95.664 28.464 96.4128 28.2976H111.077ZM92.0448 23.368C92.7936 23.4928 93.2304 23.9712 93.3552 24.8032C93.3136 25.5936 92.8768 26.0928 92.0448 26.3008H75.6336C74.8432 26.2592 74.344 25.8224 74.136 24.9904C74.136 24.1584 74.5104 23.6176 75.2592 23.368H92.0448ZM93.8544 32.104C94.728 32.2288 95.1856 32.728 95.2272 33.6016C95.1024 34.4752 94.6448 34.9328 93.8544 34.9744L87.9264 35.0368V35.0992C88.0928 40.7984 88.0928 46.5184 87.9264 52.2592C87.9264 53.1744 88.2592 53.8816 88.9248 54.3808C89.9648 55.296 91.1088 55.8992 92.3568 56.1904C94.312 56.6064 96.2672 56.9392 98.2224 57.1888C100.219 57.4384 102.216 57.5632 104.213 57.5632C106.917 57.5632 109.621 57.4592 112.325 57.2512C115.07 57.0432 117.795 56.752 120.499 56.3776L119.002 47.392C119.002 46.56 119.397 46.0192 120.187 45.7696C120.936 45.728 121.477 46.1024 121.81 46.8928L123.432 57.5632C123.515 58.4368 123.12 58.9776 122.246 59.1856C116.256 59.9344 110.245 60.3088 104.213 60.3088C99.928 60.3504 95.7264 59.872 91.608 58.8736C89.8608 58.3744 88.3632 57.584 87.1152 56.5024C85.784 55.296 85.1184 53.84 85.1184 52.1344C85.2848 46.4768 85.2848 40.84 85.1184 35.224V35.0992L80.8752 35.1616C81.0416 36.6592 81.104 38.1568 81.0624 39.6544C81.0624 41.1104 80.9584 42.5664 80.7504 44.0224C80.3344 50.0544 77.7136 54.8592 72.888 58.4368C72.0976 58.9776 71.3696 58.8736 70.704 58.1248C70.4128 57.2512 70.704 56.6064 71.5776 56.1904C75.5712 53.0704 77.6928 48.9104 77.9424 43.7104C78.3168 40.8816 78.3792 38.032 78.1296 35.1616L73.824 35.224C72.9088 35.0992 72.4304 34.6 72.3888 33.7264C72.5136 32.9776 72.992 32.5408 73.824 32.416L93.8544 32.104ZM98.2848 35.9728C98.9504 35.9728 99.408 36.2432 99.6576 36.784L103.214 43.8976C103.672 44.7712 103.547 45.4992 102.84 46.0816C101.925 46.3312 101.259 46.0816 100.843 45.3328L97.1616 38.0944C96.8288 37.0128 97.2032 36.3056 98.2848 35.9728ZM138.845 13.8208C138.262 15.7344 137.784 17.9392 137.41 20.4352C137.035 22.8896 136.744 25.5936 136.536 28.5472C136.328 31.5424 136.224 34.3296 136.224 36.9088C136.224 39.4464 136.307 41.7552 136.474 43.8352C136.848 48.1616 137.555 51.8848 138.595 55.0048C140.384 50.9696 141.861 49.0976 143.026 49.3888C144.274 49.7216 144.419 50.8032 143.462 52.6336C142.963 53.5488 142.526 54.4016 142.152 55.192C141.778 55.9824 141.445 56.6896 141.154 57.3136C140.613 58.5616 139.76 59.2272 138.595 59.3104C137.472 59.3104 136.411 57.8752 135.413 55.0048C134.872 53.5488 134.456 51.9264 134.165 50.1376C133.874 48.3488 133.645 46.3728 133.478 44.2096C133.312 42.088 133.229 39.7168 133.229 37.096C133.27 34.4752 133.395 31.6048 133.603 28.4848C133.811 25.4064 134.123 22.5776 134.539 19.9984C134.955 17.3776 135.496 15.048 136.162 13.0096C136.578 12.2192 137.16 11.8448 137.909 11.8864C138.658 12.0112 138.97 12.656 138.845 13.8208ZM183.211 17.6896C184.293 17.9392 184.854 18.4592 184.896 19.2496C184.938 19.9984 184.376 20.4976 183.211 20.7472L152.822 20.56C151.533 20.3936 150.971 19.9152 151.138 19.1248C151.346 18.3344 151.907 17.856 152.822 17.6896H183.211ZM156.754 43.7104C157.211 48.3696 159.582 51.344 163.867 52.6336C167.029 53.2992 171.646 53.4448 177.72 53.0704C178.677 53.4448 179.197 53.9648 179.28 54.6304C179.28 55.3792 178.802 55.8784 177.845 56.128C171.646 56.5024 166.758 56.2736 163.181 55.4416C157.44 53.736 154.362 49.8672 153.946 43.8352C154.278 42.8368 154.757 42.3376 155.381 42.3376C156.046 42.3376 156.504 42.7952 156.754 43.7104ZM216.096 8.9536C216.97 9.0784 217.448 9.5568 217.531 10.3888C216.824 15.3808 214.744 19.416 211.291 22.4944L218.405 22.5568C219.278 22.7648 219.736 23.2432 219.778 23.992L218.842 59.3728C218.509 60.4544 217.843 60.808 216.845 60.4336L209.419 55.7536C208.67 55.2544 208.504 54.6304 208.92 53.8816C209.461 53.216 210.106 53.0704 210.854 53.4448L216.221 56.752L216.595 42.5872L201.806 42.4C201.723 45.6448 201.286 48.848 200.496 52.0096C199.747 55.1296 198.686 58.1664 197.314 61.12C196.856 61.7856 196.232 61.9936 195.442 61.744C194.693 61.1616 194.547 60.4544 195.005 59.6224C197.542 53.84 198.894 47.808 199.061 41.5264C199.019 41.4432 198.998 41.3808 198.998 41.3392C198.998 41.256 198.978 41.1728 198.936 41.0896C198.978 41.0064 198.998 40.9232 198.998 40.84C198.998 40.7152 199.019 40.6112 199.061 40.528C199.102 39.7376 199.102 38.968 199.061 38.2192C199.102 35.7648 199.082 33.352 198.998 30.9808C198.915 28.6096 198.77 26.2384 198.562 23.8672C198.52 23.16 198.811 22.6816 199.435 22.432H199.872L206.861 22.4944C210.979 20.1648 213.454 16.5872 214.286 11.7616H204.926C204.136 16.712 201.39 20.352 196.69 22.6816C195.858 23.0144 195.213 22.8272 194.755 22.12C194.464 21.2048 194.734 20.5808 195.566 20.248C199.602 18.0016 201.952 14.632 202.618 10.1392C202.742 9.5984 203.075 9.2032 203.616 8.9536H216.096ZM243.178 43.648C243.968 43.5648 244.488 43.8768 244.738 44.584L248.294 57.9376C248.419 58.7696 248.086 59.3104 247.296 59.56C246.547 59.6848 246.027 59.3728 245.736 58.624L244.426 54.0064L223.771 57.9376C222.981 57.9376 222.461 57.5424 222.211 56.752C222.128 55.92 222.502 55.4 223.334 55.192L232.32 53.5072C232.278 53.4656 232.258 53.3824 232.258 53.2576L232.195 39.2176L224.208 39.3424C223.334 39.2592 222.835 38.8224 222.71 38.032L221.65 22.9936C221.733 22.1616 222.17 21.6832 222.96 21.5584L232.195 21.496L232.133 10.7008C232.174 9.9936 232.57 9.536 233.318 9.328C234.234 9.3696 234.774 9.8272 234.941 10.7008L235.003 21.496L244.114 21.4336C245.029 21.6 245.486 22.12 245.486 22.9936L244.051 37.8448C243.843 38.5936 243.386 38.9888 242.678 39.0304L235.066 39.1552L235.128 52.9456L243.677 51.2608L242.054 45.3952C241.888 44.48 242.262 43.8976 243.178 43.648ZM235.003 24.2416L235.066 36.4096L241.368 36.3472L242.616 24.1792L235.003 24.2416ZM225.331 36.5344L232.195 36.472V24.2416L224.458 24.304L225.331 36.5344ZM201.245 25.24C201.328 26.1552 201.411 27.0704 201.494 27.9856C201.578 28.8592 201.64 29.7536 201.682 30.6688H207.797L207.859 25.24H201.245ZM210.605 25.3024L210.48 30.6688H216.907L217.032 25.3024H210.605ZM210.48 33.352L210.355 39.7792L216.658 39.8416L216.845 33.352H210.48ZM201.744 38.2816C201.786 38.4896 201.806 38.7184 201.806 38.968C201.806 39.2176 201.806 39.4464 201.806 39.6544L207.672 39.7168L207.734 33.4144H201.744C201.786 34.9952 201.786 36.6176 201.744 38.2816ZM272.693 19.4368V12.76C272.942 11.3872 273.421 10.7424 274.128 10.8256C274.835 10.9088 275.272 11.4704 275.438 12.5104L275.314 19.4992H296.28C297.902 19.6656 298.256 20.664 297.341 22.4944L295.781 24.0544L275.126 40.84L275.064 41.6512L292.661 33.4144C293.784 33.0816 294.574 33.1856 295.032 33.7264C295.531 34.3088 295.51 35.744 294.97 38.032C294.678 39.2384 294.387 40.4864 294.096 41.776C293.805 43.0656 293.701 44.8752 293.784 47.2048C293.909 49.1184 294.387 50.6992 295.219 51.9472C296.093 53.1536 297.05 54.048 298.09 54.6304C299.296 55.0464 300.69 55.3792 302.27 55.6288C303.893 55.8784 305.494 55.7328 307.075 55.192C308.531 53.528 309.654 53.0288 310.445 53.6944C311.277 54.4016 310.653 55.6288 308.573 57.376C306.243 58.3328 303.997 58.6864 301.834 58.4368C299.67 58.2288 297.778 57.688 296.155 56.8144C294.699 55.816 293.472 54.5264 292.474 52.9456C291.475 51.3648 290.934 49.472 290.851 47.2672C290.768 44.688 290.893 42.6704 291.226 41.2144C291.558 39.7584 291.87 38.4064 292.162 37.1584C287.502 39.4048 283.675 41.152 280.68 42.4C277.726 43.6064 275.958 44.376 275.376 44.7088L275.501 58.4992C275.251 59.6224 274.794 60.184 274.128 60.184C273.421 60.184 272.963 59.6224 272.755 58.4992L272.568 45.7696C269.698 47.184 267.285 48.3488 265.33 49.264C263.374 50.1792 262.064 50.7616 261.398 51.0112C260.816 50.9696 260.379 50.7616 260.088 50.3872C259.797 50.0128 259.734 49.5344 259.901 48.952C260.275 48.5776 260.941 48.016 261.898 47.2672C262.854 46.4768 263.936 45.624 265.142 44.7088C266.349 43.752 267.514 42.8576 268.637 42.0256C269.76 41.152 270.696 40.4448 271.445 39.904C272.194 39.3216 272.568 39.0304 272.568 39.0304L272.693 22.0576L259.09 22.1824C257.842 22.0576 257.176 21.6208 257.093 20.872C257.01 20.2064 257.55 19.7488 258.715 19.4992L272.693 19.4368ZM275.314 22.1824L275.376 36.9712L294.034 22.0576L275.314 22.1824ZM364.358 12.5728C365.398 12.9888 365.918 13.6128 365.918 14.4448C365.835 15.2352 365.398 15.8384 364.608 16.2544C363.776 17.0448 362.403 18.168 360.49 19.624C359.533 20.2896 357.266 21.8912 353.688 24.4288C350.152 26.9664 345.285 30.4608 339.086 34.912C340.542 34.7872 341.874 34.704 343.08 34.6624C344.286 34.5792 345.347 34.5168 346.262 34.4752C347.178 34.4336 348.155 34.5376 349.195 34.7872C350.277 35.0368 351.421 35.3904 352.627 35.848C355.04 36.7216 356.995 38.448 358.493 41.0272C360.074 43.5232 360.76 46.248 360.552 49.2016C360.51 50.6992 360.302 52.0096 359.928 53.1328C359.554 54.256 359.054 55.2336 358.43 56.0656C357.141 57.6464 355.581 58.9984 353.75 60.1216C351.837 61.2864 349.611 61.8896 347.074 61.9312C345.784 61.9312 344.598 61.8688 343.517 61.744C342.435 61.6192 341.458 61.4112 340.584 61.12C338.837 60.4544 337.526 59.4768 336.653 58.1872C335.696 56.7312 335.28 55.0672 335.405 53.1952C335.488 52.2384 335.634 51.3648 335.842 50.5744C336.05 49.784 336.362 49.1184 336.778 48.5776C337.526 47.4128 338.566 46.5392 339.898 45.9568C340.605 45.6656 341.395 45.4784 342.269 45.3952C343.142 45.2704 344.099 45.2496 345.139 45.3328C346.221 45.416 347.24 45.6864 348.197 46.144C349.154 46.56 350.027 47.184 350.818 48.016C351.65 48.8064 352.253 49.9504 352.627 51.448C353.043 52.9456 353.272 54.7344 353.314 56.8144C356.018 55.2752 357.536 53.0912 357.869 50.2624C357.994 48.848 357.91 47.5168 357.619 46.2688C357.37 45.0208 356.891 43.856 356.184 42.7744C354.77 40.4864 353.147 38.9888 351.317 38.2816C350.402 37.8656 349.258 37.5536 347.885 37.3456C346.554 37.1376 345.014 37.0544 343.267 37.096C341.52 37.1376 340.022 37.2208 338.774 37.3456C337.526 37.4288 336.528 37.5744 335.779 37.7824C333.117 38.448 331.91 38.032 332.16 36.5344C332.742 36.0768 334.053 35.0992 336.091 33.6016C338.171 32.0624 341.042 30.024 344.702 27.4864C348.322 24.9488 351.525 22.64 354.312 20.56C357.141 18.48 359.554 16.6704 361.55 15.1312L328.042 15.256C327.126 14.9232 326.627 14.3824 326.544 13.6336C326.502 12.9264 327.126 12.552 328.416 12.5104L364.358 12.5728ZM351.005 58C351.005 54.1312 350.318 51.4896 348.946 50.0752C347.531 48.7024 345.618 48.016 343.205 48.016C340.792 48.0576 339.211 49.16 338.462 51.3232C337.672 53.4448 337.734 55.2128 338.65 56.6272C339.523 58.0416 341.146 58.8944 343.517 59.1856C344.723 59.3104 345.95 59.2688 347.198 59.0608C348.446 58.8944 349.715 58.5408 351.005 58Z" fill="#01F0FF"/>
</g>
<defs>
<filter id="filter0_d_348_1755" x="0.927734" y="0.953125" width="372.99" height="69.165" filterUnits="userSpaceOnUse" color-interpolation-filters="sRGB">
<feFlood flood-opacity="0" result="BackgroundImageFix"/>
<feColorMatrix in="SourceAlpha" type="matrix" values="0 0 0 0 0 0 0 0 0 0 0 0 0 0 0 0 0 0 127 0" result="hardAlpha"/>
<feOffset/>
<feGaussianBlur stdDeviation="4"/>
<feComposite in2="hardAlpha" operator="out"/>
<feColorMatrix type="matrix" values="0 0 0 0 0 0 0 0 0 0.94 0 0 0 0 1 0 0 0 1 0"/>
<feBlend mode="normal" in2="BackgroundImageFix" result="effect1_dropShadow_348_1755"/>
<feBlend mode="normal" in="SourceGraphic" in2="effect1_dropShadow_348_1755" result="shape"/>
</filter>
</defs>
</svg>
