<svg width="66" height="65" viewBox="0 0 66 65" fill="none" xmlns="http://www.w3.org/2000/svg">
<path d="M63.2054 19.8488C61.5683 15.9783 59.2253 12.5029 56.241 9.51873C53.2568 6.53453 49.7809 4.19146 45.9109 2.5544C41.9028 0.859008 37.6465 0 33.2598 0C28.8731 0 24.6161 0.859603 20.6086 2.5544C16.738 4.19146 13.2627 6.53453 10.2785 9.51873C7.29429 12.5029 4.95063 15.9788 3.31417 19.8488C1.61877 23.8569 0.759766 28.1133 0.759766 32.5C0.759766 36.8867 1.61937 41.1437 3.31417 45.1512C4.95122 49.0218 7.29429 52.4971 10.2785 55.4813C13.2627 58.4655 16.7386 60.8091 20.6086 62.4456C24.6167 64.141 28.8731 65 33.2598 65C37.6465 65 41.9034 64.1404 45.9109 62.4456C49.7815 60.8086 53.2568 58.4655 56.241 55.4813C59.2253 52.4971 61.5689 49.0212 63.2054 45.1512C64.9008 41.1431 65.7598 36.8867 65.7598 32.5C65.7598 28.1133 64.9002 23.8564 63.2054 19.8488ZM60.4641 43.9921C58.977 47.5079 56.8482 50.6654 54.1361 53.3775C51.4239 56.0897 48.2665 58.2184 44.7507 59.7055C41.1117 61.2443 37.2453 62.0247 33.2592 62.0247C29.2731 62.0247 25.4061 61.2443 21.7676 59.7055C18.2518 58.2184 15.0944 56.0897 12.3823 53.3775C9.67011 50.6654 7.54134 47.5079 6.0543 43.9921C4.51487 40.3531 3.73504 36.4867 3.73504 32.5006C3.73504 28.5145 4.51547 24.6475 6.0543 21.0091C7.54134 17.4933 9.67011 14.3358 12.3823 11.6237C15.0944 8.91153 18.2518 6.78277 21.7676 5.29572C25.4067 3.7563 29.2731 2.97587 33.2592 2.97587C37.2453 2.97587 41.1117 3.7563 44.7507 5.29572C48.2665 6.78277 51.4239 8.91153 54.1361 11.6237C56.8482 14.3358 58.977 17.4933 60.4641 21.0091C62.0035 24.6481 62.7833 28.5145 62.7833 32.5006C62.7833 36.4867 62.0029 40.3531 60.4641 43.9921Z" fill="#333132"/>
<path d="M45.697 21.2753C45.6934 20.8407 45.4993 20.4294 45.1672 20.1496L32.8351 9.77247C32.3922 9.39982 31.7737 9.31767 31.2492 9.56174C30.7248 9.80581 30.389 10.3315 30.3884 10.9101L30.3765 29.2296L22.9288 22.7379C22.3091 22.198 21.3692 22.2623 20.8292 22.882C20.2893 23.5017 20.3536 24.4417 20.9733 24.9816L29.3395 32.2739L20.9733 39.5663C20.3536 40.1062 20.2893 41.0462 20.8292 41.6659C21.1233 42.0034 21.5364 42.176 21.952 42.176C22.299 42.176 22.6473 42.0552 22.9294 41.8099L30.3771 35.3183L30.389 53.6378C30.389 54.2164 30.7248 54.7421 31.2498 54.9861C31.4504 55.0796 31.6642 55.1248 31.8773 55.1248C32.2213 55.1248 32.5618 55.0058 32.8357 54.7754L45.1678 44.3983C45.5005 44.1185 45.694 43.7071 45.6976 43.2726C45.7012 42.838 45.5148 42.4231 45.1874 42.1379L33.8703 32.2739L45.1874 22.4099C45.5148 22.1242 45.7018 21.7099 45.6976 21.2753H45.697ZM33.3631 50.4417L33.3536 35.7731L41.921 43.2404L33.3631 50.4417ZM33.3536 28.7754L33.3631 14.1068L41.921 21.3081L33.3536 28.7754Z" fill="#333132"/>
</svg>
