<svg width="60" height="59" viewBox="0 0 60 59" fill="none" xmlns="http://www.w3.org/2000/svg">
<path d="M37.4258 37.5176C37.6084 39.5993 37.9736 41.6689 38.5214 43.6898L40.1406 49.6186" stroke="#464646" stroke-width="2.43481" stroke-miterlimit="10"/>
<path d="M19.8594 49.6186L21.4785 43.6898C22.0264 41.6689 22.3916 39.5993 22.5742 37.5176" stroke="#464646" stroke-width="2.43481" stroke-miterlimit="10"/>
<path d="M23.4751 52.6727L49.8197 47.8518C50.1118 47.8031 50.404 47.7666 50.7084 47.7666C53.3988 47.7666 55.578 49.9458 55.578 52.6362C55.578 55.3267 53.3988 57.5058 50.7084 57.5058H23.9133C22.5742 57.5058 21.4785 56.4102 21.4785 55.071C21.4785 53.878 22.3429 52.8919 23.4751 52.6849V52.6727Z" stroke="#464646" stroke-width="2.43481" stroke-miterlimit="10"/>
<path d="M34.8701 10.016C34.8701 12.7064 32.6909 14.8856 30.0005 14.8856C27.31 14.8856 25.1309 12.7064 25.1309 10.016V6.36375C25.1309 3.67329 27.31 1.49414 30.0005 1.49414C32.6909 1.49414 34.8701 3.67329 34.8701 6.36375V10.016Z" stroke="#464646" stroke-width="2.43481" stroke-miterlimit="10"/>
<path d="M29.9992 29.4932V34.2898L42.5263 39.7316C43.3785 40.0968 44.3646 39.9507 45.0585 39.342C45.7646 38.7333 46.069 37.7716 45.8377 36.8707L42.8307 24.6967C42.4168 23.0045 41.1507 21.6653 39.5072 21.1662C33.2984 19.2792 26.6757 19.2792 20.467 21.1662C18.8235 21.6653 17.5574 23.0045 17.1435 24.6967L14.1365 36.8707C13.9174 37.7838 14.2217 38.7333 14.9156 39.342C15.6217 39.9507 16.6078 40.0968 17.4478 39.7316L29.9749 34.2898V29.4932" stroke="#464646" stroke-width="2.43481" stroke-miterlimit="10"/>
<path d="M29.9991 51.4689L10.1919 47.8411C9.89973 47.7924 9.60756 47.7559 9.30321 47.7559C6.61275 47.7559 4.43359 49.935 4.43359 52.6255C4.43359 55.3159 6.61275 57.4951 9.30321 57.4951H23.912" stroke="#464646" stroke-width="2.43481" stroke-miterlimit="10"/>
<path d="M37.3047 27.0596V31.9292" stroke="#464646" stroke-width="2.43481" stroke-miterlimit="10"/>
<path d="M22.6953 27.0596V31.9292" stroke="#464646" stroke-width="2.43481" stroke-miterlimit="10"/>
<path d="M38.5215 2.82031C49.819 6.42383 57.9999 17.0031 57.9999 29.4936C57.9999 34.8502 56.4904 39.8537 53.8851 44.1024" stroke="#464646" stroke-width="2.43481" stroke-miterlimit="10"/>
<path d="M6.11482 44.1024C3.50958 39.8537 2 34.8502 2 29.4936C2 17.0031 10.1809 6.42383 21.4785 2.82031" stroke="#464646" stroke-width="2.43481" stroke-miterlimit="10"/>
<path d="M38.5215 7.99512C47.0798 11.3795 53.1303 19.7309 53.1303 29.4945C53.1303 35.0336 51.1825 40.1224 47.9198 44.1033" stroke="#464646" stroke-width="2.43481" stroke-miterlimit="10"/>
<path d="M12.0796 44.1033C8.81699 40.1224 6.86914 35.0336 6.86914 29.4945C6.86914 19.7309 12.9196 11.3795 21.478 7.99512" stroke="#464646" stroke-width="2.43481" stroke-miterlimit="10"/>
</svg>
