<svg width="177" height="183" viewBox="0 0 177 183" fill="none" xmlns="http://www.w3.org/2000/svg">
<g clip-path="url(#clip0_349_1866)">
<path fill-rule="evenodd" clip-rule="evenodd" d="M89.1749 178.065C94.9494 178.065 99.6306 173.38 99.6306 167.602V161.482C99.6306 155.704 94.9494 151.019 89.1749 151.019H86.9309C81.1564 151.019 76.4752 155.704 76.4752 161.482V167.602C76.4752 173.38 81.1564 178.065 86.9309 178.065H89.1749ZM104.562 167.602C104.562 176.106 97.6732 183 89.1749 183H86.9309C78.4325 183 71.5433 176.106 71.5433 167.602V161.482C71.5433 152.978 78.4325 146.084 86.9309 146.084H89.1749C97.6732 146.084 104.562 152.978 104.562 161.482V167.602Z" fill="white"/>
<path fill-rule="evenodd" clip-rule="evenodd" d="M38.1044 162.165C42.7761 165.561 49.3147 164.525 52.7089 159.85L56.3035 154.899C59.6977 150.224 58.6621 143.681 53.9904 140.284L52.175 138.965C47.5033 135.568 40.9646 136.604 37.5704 141.279L33.9758 146.23C30.5816 150.905 31.6172 157.448 36.2889 160.845L38.1044 162.165ZM56.6989 162.751C51.7037 169.631 42.0808 171.156 35.2055 166.157L33.39 164.837C26.5147 159.839 24.9906 150.209 29.9858 143.329L33.5804 138.378C38.5756 131.498 48.1986 129.973 55.0739 134.972L56.8893 136.292C63.7646 141.29 65.2888 150.92 60.2936 157.8L56.6989 162.751Z" fill="white"/>
<path fill-rule="evenodd" clip-rule="evenodd" d="M6.13473 119.314C7.91915 124.81 13.8178 127.817 19.3097 126.031L25.1259 124.14C30.6178 122.355 33.6233 116.452 31.8389 110.956L31.1454 108.821C29.361 103.325 23.4624 100.318 17.9705 102.103L12.1542 103.994C6.66236 105.78 3.65686 111.683 5.44128 117.178L6.13473 119.314ZM20.8337 130.725C12.7513 133.353 4.07032 128.927 1.44419 120.839L0.750746 118.703C-1.87538 110.615 2.5478 101.929 10.6302 99.3006L16.4465 97.4095C24.5289 94.7816 33.2098 99.2078 35.836 107.296L36.5294 109.431C39.1555 117.519 34.7324 126.206 26.65 128.834L20.8337 130.725Z" fill="white"/>
<path fill-rule="evenodd" clip-rule="evenodd" d="M5.42213 65.8172C3.63771 71.3128 6.6432 77.2154 12.1351 79.0011L17.9514 80.8922C23.4432 82.6778 29.3419 79.6703 31.1263 74.1746L31.8197 72.039C33.6041 66.5434 30.5986 60.6408 25.1068 58.8551L19.2905 56.964C13.7986 55.1784 7.9 58.1859 6.11557 63.6815L5.42213 65.8172ZM10.611 83.6948C2.52864 81.0669 -1.89454 72.38 0.731593 64.2921L1.42504 62.1565C4.05117 54.0686 12.7321 49.6424 20.8145 52.2703L26.6308 54.1614C34.7132 56.7893 39.1364 65.4762 36.5103 73.5641L35.8168 75.6997C33.1907 83.7876 24.5097 88.2138 16.4273 85.5859L10.611 83.6948Z" fill="white"/>
<path fill-rule="evenodd" clip-rule="evenodd" d="M36.3106 22.1246C31.639 25.5211 30.6033 32.0642 33.9975 36.739L37.5922 41.69C40.9863 46.3649 47.525 47.4012 52.1967 44.0047L54.0121 42.6848C58.6838 39.2883 59.7194 32.7452 56.3253 28.0704L52.7306 23.1194C49.3364 18.4445 42.7978 17.4082 38.1261 20.8047L36.3106 22.1246ZM30.0075 39.6399C25.0123 32.7599 26.5364 23.1305 33.4117 18.1319L35.2272 16.812C42.1025 11.8134 51.7254 13.3385 56.7206 20.2185L60.3153 25.1695C65.3105 32.0494 63.7863 41.6789 56.911 46.6775L55.0956 47.9974C48.2203 52.996 38.5973 51.4709 33.6021 44.5909L30.0075 39.6399Z" fill="white"/>
<path fill-rule="evenodd" clip-rule="evenodd" d="M86.9286 4.93527C81.1541 4.93527 76.4729 9.61962 76.4729 15.3981V21.5178C76.4729 27.2962 81.1541 31.9806 86.9286 31.9806H89.1726C94.9472 31.9806 99.6283 27.2962 99.6283 21.5178V15.3981C99.6283 9.61962 94.9472 4.93527 89.1726 4.93527H86.9286ZM71.541 15.3981C71.541 6.89394 78.4303 0 86.9286 0H89.1726C97.671 0 104.56 6.89394 104.56 15.3981V21.5178C104.56 30.0219 97.671 36.9159 89.1726 36.9159H86.9286C78.4303 36.9159 71.541 30.0219 71.541 21.5178V15.3981Z" fill="white"/>
<path fill-rule="evenodd" clip-rule="evenodd" d="M137.985 20.8052C133.314 17.4087 126.775 18.445 123.381 23.1199L119.786 28.0709C116.392 32.7457 117.428 39.2888 122.099 42.6853L123.915 44.0052C128.587 47.4017 135.125 46.3654 138.519 41.6905L142.114 36.7395C145.508 32.0647 144.473 25.5216 139.801 22.1251L137.985 20.8052ZM119.391 20.219C124.386 13.339 134.009 11.8139 140.884 16.8125L142.7 18.1324C149.575 23.131 151.099 32.7604 146.104 39.6404L142.509 44.5914C137.514 51.4714 127.891 52.9965 121.016 47.9979L119.201 46.678C112.325 41.6794 110.801 32.05 115.796 25.17L119.391 20.219Z" fill="white"/>
<path fill-rule="evenodd" clip-rule="evenodd" d="M169.998 63.6812C168.214 58.1856 162.315 55.1781 156.823 56.9637L151.007 58.8548C145.515 60.6404 142.51 66.5431 144.294 72.0387L144.987 74.1743C146.772 79.6699 152.67 82.6775 158.162 80.8918L163.979 79.0007C169.47 77.2151 172.476 71.3125 170.692 65.8169L169.998 63.6812ZM155.299 52.27C163.382 49.6421 172.062 54.0682 174.689 62.1561L175.382 64.2918C178.008 72.3797 173.585 81.0666 165.503 83.6945L159.686 85.5856C151.604 88.2135 142.923 83.7873 140.297 75.6994L139.603 73.5638C136.977 65.4759 141.4 56.789 149.483 54.1611L155.299 52.27Z" fill="white"/>
<path fill-rule="evenodd" clip-rule="evenodd" d="M170.66 117.182C172.444 111.686 169.439 105.784 163.947 103.998L158.131 102.107C152.639 100.321 146.74 103.329 144.956 108.824L144.262 110.96C142.478 116.456 145.483 122.358 150.975 124.144L156.792 126.035C162.283 127.821 168.182 124.813 169.966 119.317L170.66 117.182ZM165.471 99.3042C173.553 101.932 177.977 110.619 175.35 118.707L174.657 120.843C172.031 128.93 163.35 133.357 155.267 130.729L149.451 128.838C141.369 126.21 136.946 117.523 139.572 109.435L140.265 107.299C142.891 99.2114 151.572 94.7852 159.655 97.4131L165.471 99.3042Z" fill="white"/>
<path fill-rule="evenodd" clip-rule="evenodd" d="M139.812 160.869C144.484 157.472 145.52 150.929 142.126 146.254L138.531 141.303C135.137 136.628 128.598 135.592 123.926 138.988L122.111 140.308C117.439 143.705 116.404 150.248 119.798 154.923L123.392 159.874C126.787 164.549 133.325 165.585 137.997 162.188L139.812 160.869ZM146.116 143.353C151.111 150.233 149.587 159.863 142.711 164.861L140.896 166.181C134.021 171.18 124.398 169.655 119.402 162.775L115.808 157.824C110.813 150.944 112.337 141.314 119.212 136.316L121.027 134.996C127.903 129.997 137.526 131.522 142.521 138.402L146.116 143.353Z" fill="white"/>
<path d="M74.8178 121.26H67.6665V67.2682L59.1836 73.7088V66.1084L67.5679 59.7666H74.8178V121.26Z" fill="white"/>
<path d="M116.911 107.219C116.961 109.373 116.54 111.513 115.678 113.487C114.944 115.216 113.853 116.769 112.476 118.045C111.099 119.321 109.467 120.29 107.688 120.89C105.887 121.51 103.996 121.826 102.091 121.828C100.195 121.839 98.3108 121.531 96.5177 120.915C94.7724 120.304 93.1637 119.357 91.783 118.126C90.3714 116.847 89.2599 115.271 88.528 113.512C87.7088 111.526 87.3059 109.392 87.3443 107.244V73.8815C87.3059 71.7332 87.7088 69.5999 88.528 67.6137C89.2631 65.8632 90.3744 64.2961 91.783 63.0239C93.1742 61.7957 94.7791 60.8338 96.5177 60.1861C98.3049 59.5419 100.191 59.2161 102.091 59.2238C103.998 59.2203 105.892 59.5458 107.688 60.1861C109.436 60.8161 111.044 61.7799 112.423 63.0239C113.817 64.3095 114.926 65.873 115.678 67.6137C116.54 69.5883 116.961 71.7274 116.911 73.8815V107.219ZM109.76 73.8815C109.826 72.834 109.674 71.7843 109.313 70.7987C108.952 69.8132 108.39 68.9135 107.664 68.1566C106.92 67.4647 106.047 66.9274 105.095 66.5758C104.142 66.2243 103.13 66.0654 102.115 66.1085C101.105 66.0673 100.097 66.2272 99.1485 66.5787C98.2003 66.9303 97.3313 67.4666 96.5917 68.1566C95.865 68.9135 95.3035 69.8132 94.9427 70.7987C94.5818 71.7843 94.4296 72.834 94.4956 73.8815V107.219C94.4223 108.264 94.5712 109.312 94.9325 110.294C95.2938 111.277 95.8593 112.172 96.5917 112.92C98.1071 114.27 100.088 114.978 102.115 114.894C104.151 114.985 106.142 114.276 107.664 112.92C108.396 112.172 108.962 111.277 109.323 110.294C109.684 109.312 109.833 108.264 109.76 107.219V73.8815Z" fill="white"/>
</g>
<defs>
<clipPath id="clip0_349_1866">
<rect width="176.094" height="183" fill="white"/>
</clipPath>
</defs>
</svg>
