<?xml version="1.0" encoding="utf-8"?>
<!-- Generator: Adobe Illustrator 25.2.3, SVG Export Plug-In . SVG Version: 6.00 Build 0)  -->
<svg version="1.1" id="Layer_1" xmlns="http://www.w3.org/2000/svg" xmlns:xlink="http://www.w3.org/1999/xlink" x="0px" y="0px"
	 viewBox="0 0 100 100" style="enable-background:new 0 0 100 100;" xml:space="preserve">
<style type="text/css">
	.st0{fill:#FFFFFF;}
</style>
<g>
	<g>
		<path d="M98.4,50C98.4,23.2,76.8,1.6,50,1.6C23.2,1.6,1.6,23.2,1.6,50c0,26.7,21.7,48.4,48.4,48.4C76.8,98.4,98.4,76.8,98.4,50z"
			/>
		<path class="st0" d="M50,100c-13.4,0-25.9-5.2-35.4-14.6C5.2,75.9,0,63.4,0,50c0-13.4,5.2-25.9,14.6-35.4C24.1,5.2,36.6,0,50,0
			c13.4,0,25.9,5.2,35.4,14.6c9.4,9.4,14.6,22,14.6,35.4c0,13.4-5.2,25.9-14.6,35.4S63.4,100,50,100z M50,3.1
			C24.2,3.1,3.1,24.2,3.1,50c0,25.8,21,46.9,46.9,46.9c25.8,0,46.9-21,46.9-46.9C96.9,24.2,75.8,3.1,50,3.1z"/>
	</g>
	<g>
		<path class="st0" d="M52.2,26.7c-0.7-0.4-1.5-0.3-2.1,0.1L31.5,38.9h-6.9c-1.1,0-2.1,0.9-2.1,2.1v18.1c0,1.1,0.9,2.1,2.1,2.1h6.9
			l18.6,12.1c0.3,0.2,0.7,0.3,1.1,0.3c0.3,0,0.7-0.1,1-0.3c0.7-0.4,1.1-1.1,1.1-1.8V28.5C53.3,27.8,52.9,27.1,52.2,26.7z"/>
	</g>
	<g>
		<g>
			<path class="st0" d="M62.8,36.4c-0.8-0.7-2-0.7-2.7,0c-0.7,0.8-0.7,2,0,2.7C63,42,64.6,45.9,64.6,50s-1.6,8-4.5,10.9
				c-0.8,0.7-0.8,2,0,2.7c0.4,0.4,0.9,0.6,1.4,0.6c0.5,0,1-0.2,1.4-0.6c3.7-3.6,5.7-8.4,5.7-13.6S66.5,40,62.8,36.4z"/>
		</g>
		<g>
			<path class="st0" d="M68.3,30.9c-0.8-0.8-2-0.7-2.7,0c-0.7,0.8-0.7,2,0,2.7c4.4,4.3,6.8,10.1,6.8,16.3s-2.4,12-6.8,16.3
				c-0.8,0.8-0.8,2,0,2.7c0.4,0.4,0.9,0.6,1.4,0.6c0.5,0,1-0.2,1.4-0.6c5.1-5.1,7.9-11.8,7.9-19.1S73.4,36,68.3,30.9z"/>
		</g>
	</g>
</g>
</svg>
