<svg width="486" height="55" viewBox="0 0 486 55" fill="none" xmlns="http://www.w3.org/2000/svg">
<path d="M22.1408 32.0288V13.6832C16.8576 19.424 10.1808 22.9808 2.1104 24.3536C1.2784 24.4784 0.696 24.1248 0.363201 23.2928C0.363201 22.4608 0.800001 21.9616 1.6736 21.7952C9.7024 20.464 16.2128 16.7824 21.2048 10.7504C21.9536 9.752 22.5568 8.7328 23.0144 7.6928C23.5136 6.6112 23.9088 5.5088 24.2 4.3856H1.3616C0.529601 4.3024 0.0928006 3.8448 0.0512005 3.0128C0.176 2.3056 0.6128 1.8896 1.3616 1.76479H48.0992C48.8064 1.8896 49.2224 2.3056 49.3472 3.0128C49.3056 3.8864 48.8896 4.344 48.0992 4.3856H26.8208C26.3632 6.4656 25.6768 8.3792 24.7616 10.1264C24.8032 10.168 24.824 10.2096 24.824 10.2512C24.824 10.2512 24.8448 10.272 24.8864 10.3136C26.1344 12.3104 27.736 14.0576 29.6912 15.5552C34.9744 19.4656 40.9024 21.712 47.4752 22.2944C48.432 22.3776 48.9312 22.856 48.9728 23.7296C48.7232 24.6032 48.1408 24.9776 47.2256 24.8528C43.6896 24.52 40.32 23.7712 37.1168 22.6064C33.9136 21.4 30.8976 19.736 28.0688 17.6144C26.8624 16.7824 25.76 15.7632 24.7616 14.5568V32.0288H40.424C41.3392 32.1536 41.7552 32.6944 41.672 33.6512C40.7568 39.7664 39.9456 45.9232 39.2384 52.1216C39.0304 52.8288 38.6144 53.224 37.9904 53.3072H8.912C8.1632 53.2656 7.6848 52.8288 7.4768 51.9968C7.3104 45.8816 6.6864 39.7664 5.6048 33.6512C5.5216 32.7776 5.9584 32.2368 6.9152 32.0288H22.1408ZM8.4752 34.712C8.8496 37.3744 9.1616 40.0368 9.4112 42.6992C9.7024 45.32 9.9104 47.9824 10.0352 50.6864H36.68C37.0128 47.9824 37.3456 45.32 37.6784 42.6992C38.0528 40.0368 38.448 37.3744 38.864 34.712H8.4752ZM111.56 10.3136C111.518 10.688 111.435 11.9152 111.31 13.9952C111.186 16.0752 110.957 19.0288 110.624 22.856C110.624 23.1888 110.499 23.4592 110.25 23.6672C109.958 23.9168 109.667 24.0416 109.376 24.0416C109.002 24.0416 108.731 23.896 108.565 23.6048C108.315 23.3552 108.19 23.064 108.19 22.7312L109.064 11.1872L65.8832 11L66.5072 23.0432C66.5072 23.3344 66.4032 23.6256 66.1952 23.9168C65.9456 24.1664 65.6544 24.2912 65.3216 24.2912C64.9472 24.2912 64.656 24.1664 64.448 23.9168C64.1984 23.7088 64.0736 23.4176 64.0736 23.0432L63.3872 10.4384C63.3872 9.7312 63.4496 9.232 63.5744 8.9408C63.6992 8.6496 64.0736 8.504 64.6976 8.504L85.7264 8.5664V1.8896C85.7264 1.5152 85.8512 1.2032 86.1008 0.953598C86.3504 0.703996 86.6416 0.579195 86.9744 0.579195C87.3072 0.579195 87.5984 0.703996 87.848 0.953598C88.056 1.2448 88.16 1.5568 88.16 1.8896V8.6288L110.312 8.6912C110.603 8.6912 110.874 8.816 111.123 9.0656C111.29 9.2736 111.414 9.544 111.498 9.8768C111.539 9.96 111.56 10.1056 111.56 10.3136ZM76.8032 33.6512C76.512 35.3152 76.2416 36.6464 75.992 37.6448C75.7424 38.6432 75.5344 39.3504 75.368 39.7664C75.1184 40.4736 74.8272 41.1808 74.4944 41.888C74.1616 42.5952 73.8288 43.2816 73.496 43.9472C75.2016 45.112 77.032 46.152 78.9872 47.0672C80.9424 47.9408 83.0224 48.6896 85.2272 49.3136L85.2896 20.2352L71.1872 20.048C70.896 20.048 70.6256 19.9024 70.376 19.6112C70.1264 19.2784 70.0016 18.9664 70.0016 18.6752C70.0016 18.3424 70.1472 18.0512 70.4384 17.8016C70.7712 17.5936 71.0624 17.4896 71.312 17.4896L103.698 17.6144C104.03 17.6144 104.322 17.7392 104.571 17.9888C104.821 18.2384 104.946 18.5296 104.946 18.8624C104.946 19.1952 104.821 19.4864 104.571 19.736C104.363 19.9856 104.072 20.1104 103.698 20.1104L87.7856 20.2352L87.9104 32.3408L102.949 32.2784C103.24 32.2784 103.531 32.4032 103.822 32.6528C104.072 32.944 104.197 33.2352 104.197 33.5264C104.197 33.8592 104.072 34.1504 103.822 34.4C103.531 34.6496 103.24 34.7744 102.949 34.7744L87.9104 34.8368L87.6608 49.8752C94.3168 51.3728 101.514 51.7472 109.251 50.9984C109.501 50.9568 109.792 51.0608 110.125 51.3104C110.333 51.4352 110.478 51.6848 110.562 52.0592C110.603 52.3088 110.52 52.6208 110.312 52.9952C110.146 53.2448 109.854 53.4112 109.438 53.4944C106.11 53.7856 102.782 53.8896 99.4544 53.8064C96.168 53.7232 92.9232 53.4112 89.72 52.8704C83.1888 51.7056 77.344 49.4384 72.1856 46.0688C69.6896 49.3552 66.7776 51.6224 63.4496 52.8704C63.1168 52.9952 62.8048 52.9744 62.5136 52.808C62.1392 52.6 61.9312 52.3712 61.8896 52.1216C61.7648 51.7888 61.7648 51.4976 61.8896 51.248C62.0144 50.9152 62.2432 50.6864 62.576 50.5616C63.7824 50.104 64.9056 49.5216 65.9456 48.8144C67.0272 48.0656 68.0256 47.1504 68.9408 46.0688C69.8144 44.9872 70.6048 43.8432 71.312 42.6368C72.0608 41.4304 72.7056 40.1408 73.2464 38.768C73.3296 38.5184 73.4752 37.9152 73.6832 36.9584C73.8912 35.96 74.1408 34.6288 74.432 32.9648C74.4736 32.6736 74.6608 32.4032 74.9936 32.1536C75.2848 31.9872 75.6176 31.9456 75.992 32.0288C76.2832 32.1536 76.5328 32.3824 76.7408 32.7152C76.8656 33.0064 76.8864 33.3184 76.8032 33.6512ZM173.461 8.0048C174.709 8.1296 175.166 9.0656 174.834 10.8128C172.962 11.2288 171.277 11.6032 169.779 11.936C169.03 12.1024 168.448 12.2272 168.032 12.3104C167.616 12.352 167.387 12.3728 167.346 12.3728C164.974 12.7472 162.707 13.5376 160.544 14.744C156.758 16.7408 153.909 19.1952 151.995 22.1072C151.038 23.5216 150.227 25.1024 149.562 26.8496C148.938 28.5552 148.48 30.4064 148.189 32.4032C148.106 34.0256 148.251 35.5648 148.626 37.0208C149.042 38.4768 149.666 39.8912 150.498 41.264C152.162 43.968 154.907 46.2976 158.734 48.2528C159.525 49.1264 159.774 49.8544 159.483 50.4368C159.192 50.9776 158.506 51.144 157.424 50.936C153.139 48.7312 149.978 45.9648 147.939 42.6368C145.984 39.3504 145.069 35.8352 145.194 32.0912C145.818 27.64 147.19 23.7712 149.312 20.4848C151.434 17.1984 155.24 14.1616 160.731 11.3744L123.416 11.2496C122.293 10.792 121.856 10.1888 122.106 9.44C122.314 8.608 122.854 8.2336 123.728 8.3168L173.461 8.0048ZM175.77 29.096C176.061 30.0112 175.957 30.6144 175.458 30.9056C174.917 31.1968 174.272 31.072 173.523 30.5312C169.072 23.2928 166.95 19.4032 167.158 18.8624C167.366 18.4048 167.762 18.0512 168.344 17.8016C168.885 17.5936 169.53 17.9264 170.278 18.8L175.77 29.096ZM167.221 33.2768C167.221 34.3168 166.971 34.9408 166.472 35.1488C165.973 35.3152 165.328 35.1904 164.538 34.7744L159.046 23.5424C158.797 22.6272 159.046 21.9408 159.795 21.4832C160.419 21.0672 161.085 21.3376 161.792 22.2944L167.221 33.2768ZM212.523 27.0368C211.858 25.456 211.213 23.8336 210.589 22.1696C210.006 20.5056 209.424 18.7792 208.842 16.9904L189.061 17.4896C187.854 17.3648 187.251 16.928 187.251 16.1792C187.251 15.472 187.771 15.0352 188.811 14.8688L208.093 14.2448C207.677 12.6224 207.219 10.896 206.72 9.0656C206.221 7.1936 205.68 5.2176 205.098 3.1376C204.931 2.0976 205.222 1.4944 205.971 1.328C206.803 1.12 207.406 1.5568 207.781 2.63839C208.322 4.8432 208.842 6.9232 209.341 8.8784C209.882 10.792 210.36 12.56 210.776 14.1824L234.301 14.12C235.258 14.5776 235.757 15.0144 235.798 15.4304C235.798 15.888 235.299 16.3456 234.301 16.8032L211.587 16.8656C212.17 18.7376 212.773 20.5264 213.397 22.232C214.021 23.9376 214.666 25.5392 215.331 27.0368L231.867 27.0992C232.907 27.4736 233.365 27.9104 233.24 28.4096C233.074 28.9504 232.533 29.408 231.618 29.7824L216.517 29.6576C217.89 32.4864 219.221 35.024 220.51 37.2704C220.718 38.2688 220.552 38.9344 220.011 39.2672C219.429 39.6 218.888 39.3712 218.389 38.5808C216.725 35.9184 215.144 32.944 213.646 29.6576L188.811 30.4688C187.813 30.3856 187.272 29.9904 187.189 29.2832C187.064 28.576 187.522 28.0976 188.562 27.848L212.523 27.0368ZM198.67 42.5744C198.837 46.568 200.917 49.272 204.91 50.6864C206.158 51.1856 207.843 51.5392 209.965 51.7472C212.128 51.9968 214.728 52.1008 217.765 52.0592C218.763 52.6416 219.054 53.2656 218.638 53.9312C218.139 54.6384 216.475 54.9712 213.646 54.9296C212.232 54.888 210.672 54.7424 208.966 54.4928C207.302 54.2432 205.493 53.9104 203.538 53.4944C198.837 51.4144 196.362 47.7952 196.112 42.6368C196.237 41.6384 196.59 41.1392 197.173 41.1392C197.714 41.1392 198.213 41.6176 198.67 42.5744ZM248.278 14.1824C247.53 14.1408 247.072 13.7456 246.906 12.9968C246.739 12.3312 247.197 11.832 248.278 11.4992L264.003 11.312C264.71 8.4416 265.147 5.6544 265.314 2.9504C265.522 2.1184 265.917 1.6816 266.499 1.64C267.082 1.5568 267.518 2.0352 267.81 3.0752C267.768 4.448 267.643 5.8208 267.435 7.1936C267.227 8.5664 266.936 9.96 266.562 11.3744L278.73 11.4992C279.562 11.8736 280.019 12.3104 280.102 12.8096C280.186 13.392 279.728 13.8496 278.73 14.1824L265.938 14.0576C263.733 21.4208 260.072 27.328 254.955 31.7792C253.915 31.904 253.27 31.8208 253.021 31.5296C252.771 31.1968 252.854 30.5728 253.27 29.6576C257.93 25.7472 261.258 20.5472 263.254 14.0576L248.278 14.1824ZM299.821 26.6C300.611 27.4736 300.861 28.1392 300.57 28.5968C300.278 29.1376 299.675 29.2416 298.76 28.9088L284.221 20.6096C283.763 19.6944 283.742 18.9872 284.158 18.488C284.616 17.9472 285.219 17.968 285.968 18.5504L299.821 26.6ZM278.73 38.5184C279.853 38.976 281.101 39.6 282.474 40.3904C283.846 41.1392 285.323 42.0544 286.904 43.136C287.362 44.1344 287.424 44.8624 287.091 45.32C286.717 45.7776 286.176 45.8192 285.469 45.4448C282.89 43.5312 280.56 42.1584 278.48 41.3264C277.606 48.1488 275.194 51.9136 271.242 52.6208C267.331 53.2864 264.586 52.7456 263.005 50.9984C261.424 49.168 260.613 47.3376 260.571 45.5072C260.53 43.6352 260.883 42.0336 261.632 40.7024C262.298 39.3712 263.358 38.3104 264.814 37.52C266.187 36.7712 267.914 36.3552 269.994 36.272C272.032 36.272 274.133 36.7504 276.296 37.7072L275.984 26.2256C276.192 25.144 276.65 24.624 277.357 24.6656C278.022 24.7488 278.418 25.2688 278.542 26.2256L278.73 38.5184ZM276.046 40.5152C274.174 39.5168 272.323 39.0176 270.493 39.0176C268.787 39.0176 267.373 39.2464 266.25 39.704C265.168 40.2032 264.315 41.3264 263.691 43.0736C263.026 44.7792 263.275 46.5264 264.44 48.3152C265.563 50.0624 267.622 50.6448 270.618 50.0624C273.613 49.5216 275.422 46.3392 276.046 40.5152ZM351.55 14.1824C354.254 17.4688 356.438 21.3584 358.102 25.8512C359.725 32.0496 360.723 37.4368 361.098 42.0128C360.931 42.8032 360.515 43.24 359.85 43.3232C359.226 43.3648 358.726 43.0112 358.352 42.2624C358.227 40.0576 357.936 37.7696 357.478 35.3984C357.021 32.9856 356.418 30.5104 355.669 27.9728C354.088 22.8976 352.029 18.8 349.491 15.68C349.2 14.6816 349.283 14.0576 349.741 13.808C350.157 13.5584 350.76 13.6832 351.55 14.1824ZM315.296 15.5552C314.922 20.7552 315.046 25.8512 315.67 30.8432C316.294 35.8768 317.605 40.0992 319.602 43.5104C321.682 47.0464 323.658 49.1472 325.53 49.8128L330.896 43.5104C331.645 43.2192 332.29 43.2192 332.83 43.5104C333.33 43.8848 333.288 44.488 332.706 45.32C332.206 46.0272 331 47.4832 329.086 49.688C327.173 51.8096 325.197 52.4336 323.158 51.56C321.078 50.6864 319.019 48.4192 316.981 44.7584C314.984 41.056 313.611 36.6048 312.862 31.4048C312.488 28.784 312.259 26.1424 312.176 23.48C312.093 20.8176 312.155 18.1344 312.363 15.4304C312.571 14.5152 313.091 14.0992 313.923 14.1824C314.714 14.2656 315.171 14.7232 315.296 15.5552ZM401.533 1.8272C402.323 1.6608 402.906 1.9104 403.28 2.576C403.613 3.3664 403.363 3.9904 402.531 4.448C398.954 5.9872 395.293 7.0896 391.549 7.7552L391.362 16.304H400.597C401.47 16.3456 401.949 16.7616 402.032 17.552C401.949 18.4256 401.47 18.904 400.597 18.9872H391.299V19.8608C393.13 24.312 396.125 27.9312 400.285 30.7184C400.992 31.176 401.158 31.8416 400.784 32.7152C400.243 33.2144 399.557 33.3392 398.725 33.0896C395.771 31.0096 393.296 28.5136 391.299 25.6016L391.05 52.184C390.925 53.0992 390.405 53.5776 389.49 53.6192C388.658 53.536 388.242 53.016 388.242 52.0592L388.366 25.7888C386.037 32.4448 382.168 38.248 376.76 43.1984C375.013 43.4896 374.368 42.7824 374.826 41.0768C378.112 37.9984 380.816 34.6288 382.938 30.968C385.101 27.3072 386.702 23.3552 387.742 19.112H375.637C374.763 18.9872 374.285 18.5088 374.202 17.6768C374.243 16.928 374.722 16.4912 375.637 16.3664L388.554 16.304L388.678 8.3792C386.515 8.7952 384.352 9.1072 382.189 9.3152C380.026 9.4816 377.862 9.5648 375.699 9.5648C374.867 9.3568 374.389 8.8784 374.264 8.1296C374.306 7.3392 374.784 6.9024 375.699 6.8192C385.142 6.3616 393.608 4.7392 401.096 1.952C401.179 1.9104 401.262 1.8896 401.346 1.8896C401.429 1.8896 401.491 1.8688 401.533 1.8272ZM421.064 5.8208C422.104 5.696 422.728 6.112 422.936 7.0688L423.061 51.0608C422.811 52.184 422.104 52.5584 420.939 52.184L412.078 47.0048C411.413 46.5056 411.246 45.9024 411.579 45.1952C412.078 44.4048 412.765 44.2592 413.638 44.7584L420.315 48.5024L420.128 7.0688C420.128 6.4032 420.44 5.9872 421.064 5.8208ZM409.083 13.808C410.123 13.7664 410.726 14.2032 410.893 15.1184L410.83 38.0816C410.789 38.9552 410.31 39.4128 409.395 39.4544C408.605 39.4128 408.106 38.9552 407.898 38.0816L407.96 15.1184C408.043 14.4112 408.418 13.9744 409.083 13.808ZM478.222 21.608C478.098 21.9824 477.994 22.3568 477.91 22.7312C477.827 23.1056 477.744 23.5216 477.661 23.9792C477.453 24.8944 477.328 25.6432 477.286 26.2256C477.245 26.5584 477.162 26.9536 477.037 27.4112C476.954 27.8688 476.87 28.3472 476.787 28.8464C476.579 29.9696 476.454 30.7392 476.413 31.1552C476.371 31.4048 476.33 31.7584 476.288 32.216C476.246 32.632 476.184 33.1312 476.101 33.7136C476.018 34.3792 475.955 34.92 475.914 35.336C475.872 35.752 475.83 36.064 475.789 36.272C475.706 36.688 475.539 37 475.29 37.208C475.082 37.4992 474.707 37.6032 474.166 37.52H474.042L450.018 37.7072C449.81 37.8736 449.581 37.9776 449.331 38.0192C448.582 38.144 448.104 37.832 447.896 37.0832C447.646 36.8752 447.522 36.5632 447.522 36.1472V35.7104C447.397 35.0448 447.272 34.1504 447.147 33.0272C447.022 31.904 446.877 30.5312 446.71 28.9088C446.586 27.2864 446.44 25.872 446.274 24.6656C446.107 23.4592 445.941 22.4608 445.774 21.6704C445.691 21.3376 445.65 21.1088 445.65 20.984C445.65 20.4432 445.774 20.0896 446.024 19.9232C446.274 19.6736 446.606 19.5488 447.022 19.5488H447.085L459.378 19.424C459.378 19.3824 459.378 18.6752 459.378 17.3024C459.419 15.9296 459.461 13.8912 459.502 11.1872C459.544 8.4832 459.544 6.3616 459.502 4.8224C459.502 3.2832 459.461 2.3056 459.378 1.8896C459.378 1.5152 459.502 1.1824 459.752 0.891195C460.002 0.558397 460.334 0.371197 460.75 0.329595C461.166 0.287995 461.541 0.391997 461.874 0.641598C462.165 0.932797 462.31 1.2864 462.31 1.7024C462.394 2.6592 462.456 3.6784 462.498 4.76C462.539 5.8416 462.56 6.9856 462.56 8.192L480.282 8.3168C480.656 8.3168 480.989 8.4624 481.28 8.7536C481.571 9.0448 481.717 9.3568 481.717 9.6896C481.717 10.1056 481.571 10.4592 481.28 10.7504C480.947 11.0832 480.614 11.2496 480.282 11.2496L462.498 11.0624L462.31 19.424L476.974 19.6736C477.349 19.6736 477.661 19.7984 477.91 20.048C478.16 20.2976 478.285 20.6512 478.285 21.1088C478.285 21.3584 478.264 21.504 478.222 21.5456V21.608ZM473.106 34.6496C473.522 31.8208 473.875 29.408 474.166 27.4112C474.499 25.3728 474.811 23.7296 475.102 22.4816L448.832 22.4192C448.957 23.0848 449.082 23.9376 449.206 24.9776C449.331 26.0176 449.414 27.224 449.456 28.5968C449.622 30.0944 449.768 31.3632 449.893 32.4032C450.059 33.4016 450.184 34.192 450.267 34.7744L473.106 34.6496ZM467.115 41.7632C467.323 42.3456 467.594 43.0944 467.926 44.0096C468.301 44.8832 468.758 45.9232 469.299 47.1296C469.798 48.3776 470.214 49.4592 470.547 50.3744C470.88 51.2896 471.13 52.08 471.296 52.7456C471.504 53.2032 471.504 53.5984 471.296 53.9312C471.088 54.264 470.818 54.4928 470.485 54.6176C470.152 54.7424 469.778 54.7008 469.362 54.4928C469.029 54.3264 468.779 54.056 468.613 53.6816C468.446 53.0992 468.176 52.3504 467.802 51.4352C467.469 50.5616 467.032 49.48 466.491 48.1904C465.95 46.9424 465.514 45.84 465.181 44.8832C464.848 43.9264 464.598 43.136 464.432 42.512C464.266 42.1792 464.286 41.784 464.494 41.3264C464.661 40.9104 464.931 40.6816 465.306 40.64C465.638 40.5568 466.013 40.6192 466.429 40.8272C466.803 40.952 467.032 41.264 467.115 41.7632ZM479.221 41.4512C480.261 43.5728 482.133 46.672 484.837 50.7488C485.045 51.1232 485.128 51.456 485.086 51.7472C485.045 52.1216 484.816 52.4336 484.4 52.6832C484.026 52.9328 483.672 53.016 483.339 52.9328C483.09 52.8912 482.778 52.6832 482.403 52.3088C480.989 50.2288 479.803 48.3984 478.846 46.8176C477.931 45.1952 477.224 43.864 476.725 42.824C476.517 42.4496 476.475 42.0544 476.6 41.6384C476.683 41.2224 476.912 40.952 477.286 40.8272C477.536 40.6608 477.91 40.6192 478.41 40.7024C478.826 40.8272 479.096 41.0768 479.221 41.4512ZM446.211 42.824C445.712 44.072 445.026 45.3824 444.152 46.7552C443.736 47.4624 443.362 48.0656 443.029 48.5648C442.696 49.064 442.405 49.48 442.155 49.8128C441.906 50.1872 441.573 50.6448 441.157 51.1856C440.741 51.7264 440.2 52.392 439.534 53.1824C439.368 53.4736 439.077 53.6608 438.661 53.744C438.245 53.744 437.87 53.64 437.538 53.432C437.205 53.1824 437.018 52.8496 436.976 52.4336C436.934 51.976 437.038 51.6224 437.288 51.3728L439.784 48.0656C440.075 47.7328 440.366 47.3376 440.658 46.88C440.99 46.4224 441.344 45.8816 441.718 45.2576C442.467 43.968 443.05 42.8032 443.466 41.7632C443.549 41.3888 443.778 41.0976 444.152 40.8896C444.526 40.7648 444.901 40.7648 445.275 40.8896C445.691 40.9728 445.982 41.2224 446.149 41.6384C446.315 42.0544 446.336 42.4496 446.211 42.824ZM455.384 42.1376C455.592 42.8032 455.8 43.5936 456.008 44.5088C456.216 45.3824 456.424 46.4224 456.632 47.6288C456.84 48.8352 457.027 49.8752 457.194 50.7488C457.402 51.664 457.589 52.4128 457.755 52.9952C457.88 53.3696 457.838 53.7232 457.63 54.056C457.381 54.4304 457.09 54.68 456.757 54.8048C456.341 54.8464 455.966 54.784 455.634 54.6176C455.259 54.4096 455.03 54.0976 454.947 53.6816C454.906 53.3072 454.802 52.6624 454.635 51.7472C454.469 50.832 454.219 49.6464 453.886 48.1904C453.637 46.984 453.408 45.944 453.2 45.0704C452.992 44.1968 452.805 43.4896 452.638 42.9488C452.597 42.5328 452.659 42.1376 452.826 41.7632C452.992 41.3888 453.283 41.1392 453.699 41.0144C454.032 40.9312 454.386 40.9936 454.76 41.2016C455.093 41.4512 455.301 41.7632 455.384 42.1376Z" fill="black"/>
</svg>
