<svg width="502" height="71" viewBox="0 0 502 71" fill="none" xmlns="http://www.w3.org/2000/svg">
<g filter="url(#filter0_d_348_1727)">
<path d="M30.1408 40.0288V21.6832C24.8576 27.424 18.1808 30.9808 10.1104 32.3536C9.2784 32.4784 8.696 32.1248 8.3632 31.2928C8.3632 30.4608 8.8 29.9616 9.6736 29.7952C17.7024 28.464 24.2128 24.7824 29.2048 18.7504C29.9536 17.752 30.5568 16.7328 31.0144 15.6928C31.5136 14.6112 31.9088 13.5088 32.2 12.3856H9.3616C8.5296 12.3024 8.0928 11.8448 8.0512 11.0128C8.176 10.3056 8.6128 9.8896 9.3616 9.76479H56.0992C56.8064 9.8896 57.2224 10.3056 57.3472 11.0128C57.3056 11.8864 56.8896 12.344 56.0992 12.3856H34.8208C34.3632 14.4656 33.6768 16.3792 32.7616 18.1264C32.8032 18.168 32.824 18.2096 32.824 18.2512C32.824 18.2512 32.8448 18.272 32.8864 18.3136C34.1344 20.3104 35.736 22.0576 37.6912 23.5552C42.9744 27.4656 48.9024 29.712 55.4752 30.2944C56.432 30.3776 56.9312 30.856 56.9728 31.7296C56.7232 32.6032 56.1408 32.9776 55.2256 32.8528C51.6896 32.52 48.32 31.7712 45.1168 30.6064C41.9136 29.4 38.8976 27.736 36.0688 25.6144C34.8624 24.7824 33.76 23.7632 32.7616 22.5568V40.0288H48.424C49.3392 40.1536 49.7552 40.6944 49.672 41.6512C48.7568 47.7664 47.9456 53.9232 47.2384 60.1216C47.0304 60.8288 46.6144 61.224 45.9904 61.3072H16.912C16.1632 61.2656 15.6848 60.8288 15.4768 59.9968C15.3104 53.8816 14.6864 47.7664 13.6048 41.6512C13.5216 40.7776 13.9584 40.2368 14.9152 40.0288H30.1408ZM16.4752 42.712C16.8496 45.3744 17.1616 48.0368 17.4112 50.6992C17.7024 53.32 17.9104 55.9824 18.0352 58.6864H44.68C45.0128 55.9824 45.3456 53.32 45.6784 50.6992C46.0528 48.0368 46.448 45.3744 46.864 42.712H16.4752ZM119.56 18.3136C119.518 18.688 119.435 19.9152 119.31 21.9952C119.186 24.0752 118.957 27.0288 118.624 30.856C118.624 31.1888 118.499 31.4592 118.25 31.6672C117.958 31.9168 117.667 32.0416 117.376 32.0416C117.002 32.0416 116.731 31.896 116.565 31.6048C116.315 31.3552 116.19 31.064 116.19 30.7312L117.064 19.1872L73.8832 19L74.5072 31.0432C74.5072 31.3344 74.4032 31.6256 74.1952 31.9168C73.9456 32.1664 73.6544 32.2912 73.3216 32.2912C72.9472 32.2912 72.656 32.1664 72.448 31.9168C72.1984 31.7088 72.0736 31.4176 72.0736 31.0432L71.3872 18.4384C71.3872 17.7312 71.4496 17.232 71.5744 16.9408C71.6992 16.6496 72.0736 16.504 72.6976 16.504L93.7264 16.5664V9.8896C93.7264 9.5152 93.8512 9.2032 94.1008 8.9536C94.3504 8.704 94.6416 8.5792 94.9744 8.5792C95.3072 8.5792 95.5984 8.704 95.848 8.9536C96.056 9.2448 96.16 9.5568 96.16 9.8896V16.6288L118.312 16.6912C118.603 16.6912 118.874 16.816 119.123 17.0656C119.29 17.2736 119.414 17.544 119.498 17.8768C119.539 17.96 119.56 18.1056 119.56 18.3136ZM84.8032 41.6512C84.512 43.3152 84.2416 44.6464 83.992 45.6448C83.7424 46.6432 83.5344 47.3504 83.368 47.7664C83.1184 48.4736 82.8272 49.1808 82.4944 49.888C82.1616 50.5952 81.8288 51.2816 81.496 51.9472C83.2016 53.112 85.032 54.152 86.9872 55.0672C88.9424 55.9408 91.0224 56.6896 93.2272 57.3136L93.2896 28.2352L79.1872 28.048C78.896 28.048 78.6256 27.9024 78.376 27.6112C78.1264 27.2784 78.0016 26.9664 78.0016 26.6752C78.0016 26.3424 78.1472 26.0512 78.4384 25.8016C78.7712 25.5936 79.0624 25.4896 79.312 25.4896L111.698 25.6144C112.03 25.6144 112.322 25.7392 112.571 25.9888C112.821 26.2384 112.946 26.5296 112.946 26.8624C112.946 27.1952 112.821 27.4864 112.571 27.736C112.363 27.9856 112.072 28.1104 111.698 28.1104L95.7856 28.2352L95.9104 40.3408L110.949 40.2784C111.24 40.2784 111.531 40.4032 111.822 40.6528C112.072 40.944 112.197 41.2352 112.197 41.5264C112.197 41.8592 112.072 42.1504 111.822 42.4C111.531 42.6496 111.24 42.7744 110.949 42.7744L95.9104 42.8368L95.6608 57.8752C102.317 59.3728 109.514 59.7472 117.251 58.9984C117.501 58.9568 117.792 59.0608 118.125 59.3104C118.333 59.4352 118.478 59.6848 118.562 60.0592C118.603 60.3088 118.52 60.6208 118.312 60.9952C118.146 61.2448 117.854 61.4112 117.438 61.4944C114.11 61.7856 110.782 61.8896 107.454 61.8064C104.168 61.7232 100.923 61.4112 97.72 60.8704C91.1888 59.7056 85.344 57.4384 80.1856 54.0688C77.6896 57.3552 74.7776 59.6224 71.4496 60.8704C71.1168 60.9952 70.8048 60.9744 70.5136 60.808C70.1392 60.6 69.9312 60.3712 69.8896 60.1216C69.7648 59.7888 69.7648 59.4976 69.8896 59.248C70.0144 58.9152 70.2432 58.6864 70.576 58.5616C71.7824 58.104 72.9056 57.5216 73.9456 56.8144C75.0272 56.0656 76.0256 55.1504 76.9408 54.0688C77.8144 52.9872 78.6048 51.8432 79.312 50.6368C80.0608 49.4304 80.7056 48.1408 81.2464 46.768C81.3296 46.5184 81.4752 45.9152 81.6832 44.9584C81.8912 43.96 82.1408 42.6288 82.432 40.9648C82.4736 40.6736 82.6608 40.4032 82.9936 40.1536C83.2848 39.9872 83.6176 39.9456 83.992 40.0288C84.2832 40.1536 84.5328 40.3824 84.7408 40.7152C84.8656 41.0064 84.8864 41.3184 84.8032 41.6512ZM181.461 16.0048C182.709 16.1296 183.166 17.0656 182.834 18.8128C180.962 19.2288 179.277 19.6032 177.779 19.936C177.03 20.1024 176.448 20.2272 176.032 20.3104C175.616 20.352 175.387 20.3728 175.346 20.3728C172.974 20.7472 170.707 21.5376 168.544 22.744C164.758 24.7408 161.909 27.1952 159.995 30.1072C159.038 31.5216 158.227 33.1024 157.562 34.8496C156.938 36.5552 156.48 38.4064 156.189 40.4032C156.106 42.0256 156.251 43.5648 156.626 45.0208C157.042 46.4768 157.666 47.8912 158.498 49.264C160.162 51.968 162.907 54.2976 166.734 56.2528C167.525 57.1264 167.774 57.8544 167.483 58.4368C167.192 58.9776 166.506 59.144 165.424 58.936C161.139 56.7312 157.978 53.9648 155.939 50.6368C153.984 47.3504 153.069 43.8352 153.194 40.0912C153.818 35.64 155.19 31.7712 157.312 28.4848C159.434 25.1984 163.24 22.1616 168.731 19.3744L131.416 19.2496C130.293 18.792 129.856 18.1888 130.106 17.44C130.314 16.608 130.854 16.2336 131.728 16.3168L181.461 16.0048ZM183.77 37.096C184.061 38.0112 183.957 38.6144 183.458 38.9056C182.917 39.1968 182.272 39.072 181.523 38.5312C177.072 31.2928 174.95 27.4032 175.158 26.8624C175.366 26.4048 175.762 26.0512 176.344 25.8016C176.885 25.5936 177.53 25.9264 178.278 26.8L183.77 37.096ZM175.221 41.2768C175.221 42.3168 174.971 42.9408 174.472 43.1488C173.973 43.3152 173.328 43.1904 172.538 42.7744L167.046 31.5424C166.797 30.6272 167.046 29.9408 167.795 29.4832C168.419 29.0672 169.085 29.3376 169.792 30.2944L175.221 41.2768ZM220.523 35.0368C219.858 33.456 219.213 31.8336 218.589 30.1696C218.006 28.5056 217.424 26.7792 216.842 24.9904L197.061 25.4896C195.854 25.3648 195.251 24.928 195.251 24.1792C195.251 23.472 195.771 23.0352 196.811 22.8688L216.093 22.2448C215.677 20.6224 215.219 18.896 214.72 17.0656C214.221 15.1936 213.68 13.2176 213.098 11.1376C212.931 10.0976 213.222 9.4944 213.971 9.328C214.803 9.12 215.406 9.5568 215.781 10.6384C216.322 12.8432 216.842 14.9232 217.341 16.8784C217.882 18.792 218.36 20.56 218.776 22.1824L242.301 22.12C243.258 22.5776 243.757 23.0144 243.798 23.4304C243.798 23.888 243.299 24.3456 242.301 24.8032L219.587 24.8656C220.17 26.7376 220.773 28.5264 221.397 30.232C222.021 31.9376 222.666 33.5392 223.331 35.0368L239.867 35.0992C240.907 35.4736 241.365 35.9104 241.24 36.4096C241.074 36.9504 240.533 37.408 239.618 37.7824L224.517 37.6576C225.89 40.4864 227.221 43.024 228.51 45.2704C228.718 46.2688 228.552 46.9344 228.011 47.2672C227.429 47.6 226.888 47.3712 226.389 46.5808C224.725 43.9184 223.144 40.944 221.646 37.6576L196.811 38.4688C195.813 38.3856 195.272 37.9904 195.189 37.2832C195.064 36.576 195.522 36.0976 196.562 35.848L220.523 35.0368ZM206.67 50.5744C206.837 54.568 208.917 57.272 212.91 58.6864C214.158 59.1856 215.843 59.5392 217.965 59.7472C220.128 59.9968 222.728 60.1008 225.765 60.0592C226.763 60.6416 227.054 61.2656 226.638 61.9312C226.139 62.6384 224.475 62.9712 221.646 62.9296C220.232 62.888 218.672 62.7424 216.966 62.4928C215.302 62.2432 213.493 61.9104 211.538 61.4944C206.837 59.4144 204.362 55.7952 204.112 50.6368C204.237 49.6384 204.59 49.1392 205.173 49.1392C205.714 49.1392 206.213 49.6176 206.67 50.5744ZM256.278 22.1824C255.53 22.1408 255.072 21.7456 254.906 20.9968C254.739 20.3312 255.197 19.832 256.278 19.4992L272.003 19.312C272.71 16.4416 273.147 13.6544 273.314 10.9504C273.522 10.1184 273.917 9.6816 274.499 9.64C275.082 9.5568 275.518 10.0352 275.81 11.0752C275.768 12.448 275.643 13.8208 275.435 15.1936C275.227 16.5664 274.936 17.96 274.562 19.3744L286.73 19.4992C287.562 19.8736 288.019 20.3104 288.102 20.8096C288.186 21.392 287.728 21.8496 286.73 22.1824L273.938 22.0576C271.733 29.4208 268.072 35.328 262.955 39.7792C261.915 39.904 261.27 39.8208 261.021 39.5296C260.771 39.1968 260.854 38.5728 261.27 37.6576C265.93 33.7472 269.258 28.5472 271.254 22.0576L256.278 22.1824ZM307.821 34.6C308.611 35.4736 308.861 36.1392 308.57 36.5968C308.278 37.1376 307.675 37.2416 306.76 36.9088L292.221 28.6096C291.763 27.6944 291.742 26.9872 292.158 26.488C292.616 25.9472 293.219 25.968 293.968 26.5504L307.821 34.6ZM286.73 46.5184C287.853 46.976 289.101 47.6 290.474 48.3904C291.846 49.1392 293.323 50.0544 294.904 51.136C295.362 52.1344 295.424 52.8624 295.091 53.32C294.717 53.7776 294.176 53.8192 293.469 53.4448C290.89 51.5312 288.56 50.1584 286.48 49.3264C285.606 56.1488 283.194 59.9136 279.242 60.6208C275.331 61.2864 272.586 60.7456 271.005 58.9984C269.424 57.168 268.613 55.3376 268.571 53.5072C268.53 51.6352 268.883 50.0336 269.632 48.7024C270.298 47.3712 271.358 46.3104 272.814 45.52C274.187 44.7712 275.914 44.3552 277.994 44.272C280.032 44.272 282.133 44.7504 284.296 45.7072L283.984 34.2256C284.192 33.144 284.65 32.624 285.357 32.6656C286.022 32.7488 286.418 33.2688 286.542 34.2256L286.73 46.5184ZM284.046 48.5152C282.174 47.5168 280.323 47.0176 278.493 47.0176C276.787 47.0176 275.373 47.2464 274.25 47.704C273.168 48.2032 272.315 49.3264 271.691 51.0736C271.026 52.7792 271.275 54.5264 272.44 56.3152C273.563 58.0624 275.622 58.6448 278.618 58.0624C281.613 57.5216 283.422 54.3392 284.046 48.5152ZM359.55 22.1824C362.254 25.4688 364.438 29.3584 366.102 33.8512C367.725 40.0496 368.723 45.4368 369.098 50.0128C368.931 50.8032 368.515 51.24 367.85 51.3232C367.226 51.3648 366.726 51.0112 366.352 50.2624C366.227 48.0576 365.936 45.7696 365.478 43.3984C365.021 40.9856 364.418 38.5104 363.669 35.9728C362.088 30.8976 360.029 26.8 357.491 23.68C357.2 22.6816 357.283 22.0576 357.741 21.808C358.157 21.5584 358.76 21.6832 359.55 22.1824ZM323.296 23.5552C322.922 28.7552 323.046 33.8512 323.67 38.8432C324.294 43.8768 325.605 48.0992 327.602 51.5104C329.682 55.0464 331.658 57.1472 333.53 57.8128L338.896 51.5104C339.645 51.2192 340.29 51.2192 340.83 51.5104C341.33 51.8848 341.288 52.488 340.706 53.32C340.206 54.0272 339 55.4832 337.086 57.688C335.173 59.8096 333.197 60.4336 331.158 59.56C329.078 58.6864 327.019 56.4192 324.981 52.7584C322.984 49.056 321.611 44.6048 320.862 39.4048C320.488 36.784 320.259 34.1424 320.176 31.48C320.093 28.8176 320.155 26.1344 320.363 23.4304C320.571 22.5152 321.091 22.0992 321.923 22.1824C322.714 22.2656 323.171 22.7232 323.296 23.5552ZM409.533 9.8272C410.323 9.6608 410.906 9.9104 411.28 10.576C411.613 11.3664 411.363 11.9904 410.531 12.448C406.954 13.9872 403.293 15.0896 399.549 15.7552L399.362 24.304H408.597C409.47 24.3456 409.949 24.7616 410.032 25.552C409.949 26.4256 409.47 26.904 408.597 26.9872H399.299V27.8608C401.13 32.312 404.125 35.9312 408.285 38.7184C408.992 39.176 409.158 39.8416 408.784 40.7152C408.243 41.2144 407.557 41.3392 406.725 41.0896C403.771 39.0096 401.296 36.5136 399.299 33.6016L399.05 60.184C398.925 61.0992 398.405 61.5776 397.49 61.6192C396.658 61.536 396.242 61.016 396.242 60.0592L396.366 33.7888C394.037 40.4448 390.168 46.248 384.76 51.1984C383.013 51.4896 382.368 50.7824 382.826 49.0768C386.112 45.9984 388.816 42.6288 390.938 38.968C393.101 35.3072 394.702 31.3552 395.742 27.112H383.637C382.763 26.9872 382.285 26.5088 382.202 25.6768C382.243 24.928 382.722 24.4912 383.637 24.3664L396.554 24.304L396.678 16.3792C394.515 16.7952 392.352 17.1072 390.189 17.3152C388.026 17.4816 385.862 17.5648 383.699 17.5648C382.867 17.3568 382.389 16.8784 382.264 16.1296C382.306 15.3392 382.784 14.9024 383.699 14.8192C393.142 14.3616 401.608 12.7392 409.096 9.952C409.179 9.9104 409.262 9.8896 409.346 9.8896C409.429 9.8896 409.491 9.8688 409.533 9.8272ZM429.064 13.8208C430.104 13.696 430.728 14.112 430.936 15.0688L431.061 59.0608C430.811 60.184 430.104 60.5584 428.939 60.184L420.078 55.0048C419.413 54.5056 419.246 53.9024 419.579 53.1952C420.078 52.4048 420.765 52.2592 421.638 52.7584L428.315 56.5024L428.128 15.0688C428.128 14.4032 428.44 13.9872 429.064 13.8208ZM417.083 21.808C418.123 21.7664 418.726 22.2032 418.893 23.1184L418.83 46.0816C418.789 46.9552 418.31 47.4128 417.395 47.4544C416.605 47.4128 416.106 46.9552 415.898 46.0816L415.96 23.1184C416.043 22.4112 416.418 21.9744 417.083 21.808ZM486.222 29.608C486.098 29.9824 485.994 30.3568 485.91 30.7312C485.827 31.1056 485.744 31.5216 485.661 31.9792C485.453 32.8944 485.328 33.6432 485.286 34.2256C485.245 34.5584 485.162 34.9536 485.037 35.4112C484.954 35.8688 484.87 36.3472 484.787 36.8464C484.579 37.9696 484.454 38.7392 484.413 39.1552C484.371 39.4048 484.33 39.7584 484.288 40.216C484.246 40.632 484.184 41.1312 484.101 41.7136C484.018 42.3792 483.955 42.92 483.914 43.336C483.872 43.752 483.83 44.064 483.789 44.272C483.706 44.688 483.539 45 483.29 45.208C483.082 45.4992 482.707 45.6032 482.166 45.52H482.042L458.018 45.7072C457.81 45.8736 457.581 45.9776 457.331 46.0192C456.582 46.144 456.104 45.832 455.896 45.0832C455.646 44.8752 455.522 44.5632 455.522 44.1472V43.7104C455.397 43.0448 455.272 42.1504 455.147 41.0272C455.022 39.904 454.877 38.5312 454.71 36.9088C454.586 35.2864 454.44 33.872 454.274 32.6656C454.107 31.4592 453.941 30.4608 453.774 29.6704C453.691 29.3376 453.65 29.1088 453.65 28.984C453.65 28.4432 453.774 28.0896 454.024 27.9232C454.274 27.6736 454.606 27.5488 455.022 27.5488H455.085L467.378 27.424C467.378 27.3824 467.378 26.6752 467.378 25.3024C467.419 23.9296 467.461 21.8912 467.502 19.1872C467.544 16.4832 467.544 14.3616 467.502 12.8224C467.502 11.2832 467.461 10.3056 467.378 9.8896C467.378 9.5152 467.502 9.1824 467.752 8.8912C468.002 8.5584 468.334 8.3712 468.75 8.32959C469.166 8.288 469.541 8.392 469.874 8.6416C470.165 8.9328 470.31 9.2864 470.31 9.7024C470.394 10.6592 470.456 11.6784 470.498 12.76C470.539 13.8416 470.56 14.9856 470.56 16.192L488.282 16.3168C488.656 16.3168 488.989 16.4624 489.28 16.7536C489.571 17.0448 489.717 17.3568 489.717 17.6896C489.717 18.1056 489.571 18.4592 489.28 18.7504C488.947 19.0832 488.614 19.2496 488.282 19.2496L470.498 19.0624L470.31 27.424L484.974 27.6736C485.349 27.6736 485.661 27.7984 485.91 28.048C486.16 28.2976 486.285 28.6512 486.285 29.1088C486.285 29.3584 486.264 29.504 486.222 29.5456V29.608ZM481.106 42.6496C481.522 39.8208 481.875 37.408 482.166 35.4112C482.499 33.3728 482.811 31.7296 483.102 30.4816L456.832 30.4192C456.957 31.0848 457.082 31.9376 457.206 32.9776C457.331 34.0176 457.414 35.224 457.456 36.5968C457.622 38.0944 457.768 39.3632 457.893 40.4032C458.059 41.4016 458.184 42.192 458.267 42.7744L481.106 42.6496ZM475.115 49.7632C475.323 50.3456 475.594 51.0944 475.926 52.0096C476.301 52.8832 476.758 53.9232 477.299 55.1296C477.798 56.3776 478.214 57.4592 478.547 58.3744C478.88 59.2896 479.13 60.08 479.296 60.7456C479.504 61.2032 479.504 61.5984 479.296 61.9312C479.088 62.264 478.818 62.4928 478.485 62.6176C478.152 62.7424 477.778 62.7008 477.362 62.4928C477.029 62.3264 476.779 62.056 476.613 61.6816C476.446 61.0992 476.176 60.3504 475.802 59.4352C475.469 58.5616 475.032 57.48 474.491 56.1904C473.95 54.9424 473.514 53.84 473.181 52.8832C472.848 51.9264 472.598 51.136 472.432 50.512C472.266 50.1792 472.286 49.784 472.494 49.3264C472.661 48.9104 472.931 48.6816 473.306 48.64C473.638 48.5568 474.013 48.6192 474.429 48.8272C474.803 48.952 475.032 49.264 475.115 49.7632ZM487.221 49.4512C488.261 51.5728 490.133 54.672 492.837 58.7488C493.045 59.1232 493.128 59.456 493.086 59.7472C493.045 60.1216 492.816 60.4336 492.4 60.6832C492.026 60.9328 491.672 61.016 491.339 60.9328C491.09 60.8912 490.778 60.6832 490.403 60.3088C488.989 58.2288 487.803 56.3984 486.846 54.8176C485.931 53.1952 485.224 51.864 484.725 50.824C484.517 50.4496 484.475 50.0544 484.6 49.6384C484.683 49.2224 484.912 48.952 485.286 48.8272C485.536 48.6608 485.91 48.6192 486.41 48.7024C486.826 48.8272 487.096 49.0768 487.221 49.4512ZM454.211 50.824C453.712 52.072 453.026 53.3824 452.152 54.7552C451.736 55.4624 451.362 56.0656 451.029 56.5648C450.696 57.064 450.405 57.48 450.155 57.8128C449.906 58.1872 449.573 58.6448 449.157 59.1856C448.741 59.7264 448.2 60.392 447.534 61.1824C447.368 61.4736 447.077 61.6608 446.661 61.744C446.245 61.744 445.87 61.64 445.538 61.432C445.205 61.1824 445.018 60.8496 444.976 60.4336C444.934 59.976 445.038 59.6224 445.288 59.3728L447.784 56.0656C448.075 55.7328 448.366 55.3376 448.658 54.88C448.99 54.4224 449.344 53.8816 449.718 53.2576C450.467 51.968 451.05 50.8032 451.466 49.7632C451.549 49.3888 451.778 49.0976 452.152 48.8896C452.526 48.7648 452.901 48.7648 453.275 48.8896C453.691 48.9728 453.982 49.2224 454.149 49.6384C454.315 50.0544 454.336 50.4496 454.211 50.824ZM463.384 50.1376C463.592 50.8032 463.8 51.5936 464.008 52.5088C464.216 53.3824 464.424 54.4224 464.632 55.6288C464.84 56.8352 465.027 57.8752 465.194 58.7488C465.402 59.664 465.589 60.4128 465.755 60.9952C465.88 61.3696 465.838 61.7232 465.63 62.056C465.381 62.4304 465.09 62.68 464.757 62.8048C464.341 62.8464 463.966 62.784 463.634 62.6176C463.259 62.4096 463.03 62.0976 462.947 61.6816C462.906 61.3072 462.802 60.6624 462.635 59.7472C462.469 58.832 462.219 57.6464 461.886 56.1904C461.637 54.984 461.408 53.944 461.2 53.0704C460.992 52.1968 460.805 51.4896 460.638 50.9488C460.597 50.5328 460.659 50.1376 460.826 49.7632C460.992 49.3888 461.283 49.1392 461.699 49.0144C462.032 48.9312 462.386 48.9936 462.76 49.2016C463.093 49.4512 463.301 49.7632 463.384 50.1376Z" fill="black"/>
</g>
<defs>
<filter id="filter0_d_348_1727" x="0.0507812" y="0.267578" width="501.098" height="70.7246" filterUnits="userSpaceOnUse" color-interpolation-filters="sRGB">
<feFlood flood-opacity="0" result="BackgroundImageFix"/>
<feColorMatrix in="SourceAlpha" type="matrix" values="0 0 0 0 0 0 0 0 0 0 0 0 0 0 0 0 0 0 127 0" result="hardAlpha"/>
<feOffset/>
<feGaussianBlur stdDeviation="4"/>
<feComposite in2="hardAlpha" operator="out"/>
<feColorMatrix type="matrix" values="0 0 0 0 0 0 0 0 0 0.94 0 0 0 0 1 0 0 0 1 0"/>
<feBlend mode="normal" in2="BackgroundImageFix" result="effect1_dropShadow_348_1727"/>
<feBlend mode="normal" in="SourceGraphic" in2="effect1_dropShadow_348_1727" result="shape"/>
</filter>
</defs>
</svg>
