<svg width="22" height="22" viewBox="0 0 22 22" fill="none" xmlns="http://www.w3.org/2000/svg">
<path d="M10.7188 0.828125L9.78125 1.71875C9.54688 1.95312 9.54688 2.32812 9.78125 2.51562L17.0469 9.78125H1.0625C0.734375 9.78125 0.5 10.0625 0.5 10.3438V11.6562C0.5 11.9844 0.734375 12.2188 1.0625 12.2188H17.0469L9.78125 19.5312C9.54688 19.7188 9.54688 20.0938 9.78125 20.3281L10.7188 21.2188C10.9062 21.4531 11.2812 21.4531 11.5156 21.2188L21.3125 11.4219C21.5469 11.1875 21.5469 10.8594 21.3125 10.625L11.5156 0.828125C11.2812 0.59375 10.9062 0.59375 10.7188 0.828125Z" fill="#333333"/>
</svg>
