<svg width="288" height="46" viewBox="0 0 288 46" fill="none" xmlns="http://www.w3.org/2000/svg">
<path d="M140.798 40.5339C141.708 41.9772 142.972 43.158 144.465 43.9619C146.12 44.8411 147.965 45.2916 149.833 45.273C151.446 45.273 153.154 45.0313 154.246 44.2329C155.545 43.4051 156.586 42.2217 157.248 40.8195L158.297 44.482L165.531 44.482V21.2915H152.329V27.1148H154.355V33.1138C154.44 34.4445 154.286 35.7799 153.899 37.0546C153.757 37.3824 153.516 37.6562 153.21 37.8366C152.905 38.0169 152.551 38.0944 152.199 38.0581C151.882 38.0927 151.562 38.0258 151.284 37.8668C151.006 37.7078 150.785 37.4648 150.651 37.1718C150.34 35.9604 150.215 34.7078 150.282 33.4581V12.0622C150.282 9.92337 150.419 8.5756 150.651 8.07018C150.832 7.80481 151.079 7.59303 151.368 7.45657C151.656 7.32012 151.976 7.26392 152.293 7.29375C153.11 7.29375 153.74 7.46222 154 8.07018C154.239 8.97818 154.358 9.91406 154.355 10.8536C154.355 11.3371 154.355 12.0915 154.355 12.6848V16.2081H165.539V15.2558C165.539 11.8278 165.177 8.66349 164.497 6.82496C163.817 4.98642 162.377 3.46286 160.156 2.12974C157.604 0.683346 154.718 -0.0474127 151.794 0.0128572C148.825 -0.0612818 145.907 0.795807 143.438 2.46668C141.268 3.9756 139.973 5.64566 139.525 7.45489C138.97 10.5201 138.728 13.6348 138.801 16.7501V29.4367C138.755 31.7612 138.866 34.0862 139.134 36.3953C139.363 37.8822 139.922 39.2972 140.769 40.5339" fill="white"/>
<path d="M116.999 36.5547H120.977L121.549 44.4948L133.464 44.4948L126.953 0.721558L110.445 0.721558L104.614 44.5168H116.405L116.999 36.5547ZM118.699 10.4782C118.699 10.4782 121.079 28.49 120.934 28.5779H116.999L118.699 10.4782Z" fill="white"/>
<path d="M8.0227 44.5248H18.5701L18.5701 28.586L26.9184 0.736938L16.4216 0.736938L13.499 17.943L10.4751 0.736938L0 0.736938L8.0227 28.586L8.0227 44.5248Z" fill="white"/>
<path d="M73.2669 44.4891L73.2596 15.6585L77.3035 44.4817H84.1905L88.4876 15.7684V44.4817H98.5286L98.4707 0.701172L83.6913 0.701172L80.8772 21.1082L78.0631 0.701172L63.2837 0.701172L63.2909 44.4817L73.2669 44.4891Z" fill="white"/>
<path d="M212.952 43.5741C215.529 44.823 218.367 45.4188 221.221 45.31C224.066 45.4015 226.88 44.6942 229.352 43.2664C231.257 42.2196 232.754 40.5486 233.599 38.5272C234.243 36.7327 234.561 32.3964 234.561 28.0967V26.3827H223.131V32.975C223.215 34.4369 223.083 35.9034 222.74 37.326C222.556 37.6101 222.305 37.8433 222.009 38.0047C221.714 38.1661 221.383 38.2506 221.047 38.2506C220.712 38.2506 220.381 38.1661 220.086 38.0047C219.79 37.8433 219.539 37.6101 219.355 37.326C219.094 36.718 219.015 35.3995 219.015 33.3779V12.8171C219.015 10.7075 219.094 8.60527 219.355 7.96068C219.615 7.3161 220.15 7.03775 221.084 7.03775C222.017 7.03775 222.53 7.2868 222.755 7.77024C222.979 8.25368 223.131 10.3413 223.131 12.4288V19.6731H234.539V15.7397C234.539 11.8502 234.185 8.27565 233.505 6.44444C232.671 4.43208 231.144 2.79479 229.208 1.83712C226.701 0.527339 223.902 -0.101124 221.084 0.0132319C218.771 -0.0332378 216.47 0.367001 214.305 1.19253C212.546 1.8655 210.995 3.00068 209.813 4.48138C208.807 5.72517 208.143 7.21602 207.888 8.80304C207.622 11.279 207.509 13.7694 207.548 16.2597V28.375C207.548 32.4549 207.917 36.762 208.626 38.7983C209.399 40.9048 210.958 42.6199 212.967 43.5741" fill="white"/>
<path d="M253.773 25.8327H257.195V44.511L268.603 44.511V0.701172L257.195 0.701172V16.3031H253.773V0.701172L242.358 0.701172V44.511H253.773V25.8327Z" fill="white"/>
<path d="M288 0.694092L276.584 0.694092V44.5186H288V0.694092Z" fill="white"/>
<path d="M173.752 36.5196C173.967 38.0658 174.578 39.5281 175.525 40.7607C176.703 42.2472 178.259 43.3814 180.024 44.0423C182.235 44.922 184.595 45.3502 186.969 45.3021C189.077 45.337 191.172 44.9718 193.147 44.2254C194.794 43.5908 196.241 42.5178 197.336 41.1196C198.421 39.7426 199.05 37.1423 199.267 35.8384C199.558 33.7793 199.672 31.6986 199.607 29.6196V0.701172L188.177 0.701172V33.2601C188.26 34.6018 188.153 35.9486 187.859 37.2594C187.754 37.5338 187.562 37.7651 187.313 37.9175C187.065 38.0699 186.773 38.1347 186.485 38.1018C186.222 38.131 185.957 38.076 185.728 37.9446C185.498 37.8132 185.315 37.6119 185.204 37.3693C184.94 36.2053 184.84 35.0092 184.908 33.8168V0.71582L173.478 0.71582V26.3528C173.478 31.1505 173.564 35.0327 173.738 36.505" fill="white"/>
<path d="M50.9072 0.745361L34.4133 0.745361L28.5826 44.5406H40.3743L40.9675 36.5712H44.9463L45.525 44.5113L57.4397 44.5113L50.9072 0.745361ZM44.9029 28.5798H40.9675L42.6747 10.4727C42.6747 10.4727 45.0548 28.4772 44.9029 28.5798" fill="white"/>
</svg>
