<svg width="121" height="765" viewBox="0 0 121 765" fill="none" xmlns="http://www.w3.org/2000/svg">
<path d="M107.667 391.005C111.501 388.586 114.638 385.23 116.773 381.263C119.108 376.867 120.305 371.969 120.256 367.005C120.256 362.72 119.614 358.185 117.493 355.283C115.294 351.832 112.15 349.068 108.426 347.309L118.154 344.522L118.154 325.307L56.5547 325.307L56.5547 360.375L72.0227 360.375L72.0227 354.995L87.9577 354.995C91.4924 354.768 95.0394 355.178 98.4254 356.206C99.2963 356.583 100.024 357.223 100.503 358.035C100.981 358.846 101.188 359.787 101.091 360.721C101.183 361.564 101.005 362.413 100.583 363.151C100.161 363.888 99.5149 364.477 98.7367 364.833C95.5191 365.659 92.1918 365.989 88.8722 365.813L32.0394 365.813C26.3581 365.813 22.778 365.448 21.4355 364.833C20.7307 364.353 20.1681 363.695 19.8056 362.929C19.4432 362.162 19.2939 361.314 19.3731 360.471C19.3731 358.3 19.8206 356.628 21.4355 355.937C23.8474 355.303 26.3333 354.986 28.829 354.995C30.1132 354.995 32.1172 354.995 33.6932 354.995L43.0518 354.995L43.0518 325.287L40.5225 325.287C31.4168 325.287 23.0115 326.248 18.1279 328.054C13.2443 329.861 9.19732 333.685 5.65622 339.584C1.81425 346.362 -0.126831 354.031 0.0332615 361.797C-0.16367 369.682 2.11297 377.434 6.55123 383.992C10.5593 389.756 14.9954 393.196 19.8012 394.387C27.9432 395.86 36.2166 396.504 44.4916 396.309L78.1905 396.309C84.365 396.432 90.5407 396.137 96.6743 395.425C100.624 394.817 104.382 393.332 107.667 391.082" fill="white"/>
<path d="M97.0978 454.222L97.0978 443.653L118.189 442.135L118.189 410.487L1.91601 427.781L1.91601 471.631L118.247 487.119L118.247 455.797L97.0978 454.222ZM27.8322 449.706C27.8322 449.706 75.676 443.384 75.9095 443.768L75.9095 454.222L27.8322 449.706Z" fill="white"/>
<path d="M118.269 743.69L118.269 715.673L75.9311 715.673L1.95703 693.498L1.95703 721.38L47.6606 729.143L1.95703 737.176L1.95703 765L75.9311 743.69L118.269 743.69Z" fill="white"/>
<path d="M118.175 570.385L41.5937 570.404L118.155 559.662L118.155 541.369L41.8855 529.955L118.155 529.955L118.155 503.283L1.86328 503.437L1.86328 542.695L56.0694 550.17L1.86328 557.645L1.86328 596.902L118.155 596.883L118.175 570.385Z" fill="white"/>
<path d="M115.744 199.345C119.061 192.501 120.644 184.963 120.355 177.381C120.598 169.825 118.719 162.35 114.926 155.783C112.146 150.723 107.707 146.745 102.338 144.503C97.5711 142.793 86.0528 141.947 74.6318 141.947L70.079 141.947L70.079 172.308L87.5899 172.308C91.4731 172.085 95.3684 172.434 99.1471 173.346C99.9018 173.836 100.521 174.503 100.95 175.288C101.379 176.073 101.603 176.951 101.603 177.842C101.603 178.734 101.379 179.612 100.95 180.397C100.521 181.182 99.9018 181.849 99.1471 182.339C97.5322 183.031 94.0301 183.242 88.66 183.242L34.0453 183.242C28.4418 183.242 22.8578 183.031 21.1456 182.339C19.4334 181.647 18.694 180.225 18.694 177.746C18.694 175.268 19.3556 173.903 20.6397 173.308C21.9238 172.712 27.469 172.308 33.0141 172.308L52.2567 172.308L52.2567 142.005L41.8085 142.005C31.477 142.005 21.9822 142.947 17.118 144.753C11.7727 146.967 7.42366 151.023 4.87984 156.167C1.40074 162.825 -0.268612 170.26 0.0351456 177.746C-0.0882893 183.89 0.974846 190.001 3.16766 195.752C4.95524 200.425 7.97055 204.543 11.9037 207.685C15.2075 210.357 19.1676 212.12 23.3831 212.796C29.9599 213.503 36.5751 213.805 43.1899 213.699L75.3712 213.699C86.2085 213.699 97.649 212.719 103.058 210.836C108.653 208.784 113.209 204.644 115.744 199.306" fill="white"/>
<path d="M68.6189 90.9148L68.6189 81.8257L118.233 81.8257L118.233 51.5225L1.86328 51.5225L1.86328 81.8257L43.3059 81.8257L43.3059 90.9148L1.86328 90.9148L1.86328 121.237L118.233 121.237L118.233 90.9148L68.6189 90.9148Z" fill="white"/>
<path d="M1.84375 -0.000183105L1.84375 30.3223L118.253 30.3223L118.253 -0.000188194L1.84375 -0.000183105Z" fill="white"/>
<path d="M97.0061 303.47C101.113 302.9 104.997 301.276 108.271 298.762C112.22 295.632 115.233 291.5 116.988 286.81C119.325 280.939 120.462 274.67 120.335 268.363C120.427 262.764 119.457 257.198 117.474 251.953C115.789 247.578 112.939 243.734 109.225 240.827C105.567 237.944 98.6599 236.272 95.1967 235.696C89.7272 234.925 84.2003 234.622 78.678 234.793L1.86328 234.793L1.86328 265.154L88.3479 265.154C91.9117 264.933 95.4892 265.218 98.9712 265.999C99.6999 266.279 100.314 266.788 100.719 267.449C101.124 268.109 101.296 268.883 101.209 269.65C101.286 270.347 101.14 271.05 100.791 271.661C100.442 272.271 99.9075 272.757 99.2631 273.051C96.171 273.753 92.994 274.018 89.8266 273.839L1.90219 273.839L1.90219 304.2L70.0003 304.2C82.7444 304.2 93.0564 303.97 96.9672 303.508" fill="white"/>
<path d="M1.98047 629.777L1.98047 673.589L118.312 689.077L118.312 657.755L97.1428 656.18L97.1428 645.611L118.234 644.074L118.234 612.425L1.98047 629.777ZM75.9156 645.726L75.9156 656.18L27.8188 651.645C27.8188 651.645 75.6432 645.323 75.9156 645.726Z" fill="white"/>
</svg>
