<svg width="381" height="380" viewBox="0 0 381 380" fill="none" xmlns="http://www.w3.org/2000/svg">
<path d="M142.051 126.931C143.05 127.327 143.957 127.925 144.713 128.689C145.47 129.452 146.06 130.364 146.447 131.367C147.173 133.468 147.529 135.68 147.497 137.903V145.685C147.63 147.862 147.319 150.043 146.583 152.096C145.847 154.149 144.703 156.032 143.218 157.629C141.741 159.036 139.992 160.128 138.079 160.837C136.166 161.546 134.129 161.858 132.091 161.753C129.936 161.958 127.762 161.665 125.739 160.896C123.715 160.127 121.895 158.902 120.42 157.318C117.886 153.635 116.805 149.145 117.385 144.712L127.617 143.467C127.124 145.734 127.441 148.102 128.512 150.159C128.941 150.786 129.524 151.291 130.206 151.625C130.888 151.959 131.644 152.111 132.402 152.065C133.568 152.056 134.695 151.644 135.593 150.898C136.156 150.309 136.581 149.602 136.837 148.828C137.092 148.054 137.172 147.233 137.071 146.424V137.436C137.152 136.578 137.06 135.711 136.799 134.889C136.539 134.067 136.115 133.306 135.554 132.651C134.363 131.642 132.832 131.127 131.274 131.211H128.395V122.613H131.741C133.264 122.71 134.767 122.223 135.943 121.251C136.476 120.643 136.878 119.933 137.126 119.163C137.374 118.393 137.461 117.581 137.382 116.777V109.384C137.367 108.13 137.074 106.894 136.526 105.766C136.2 105.182 135.708 104.708 135.113 104.403C134.517 104.098 133.845 103.977 133.18 104.054C132.419 104.013 131.66 104.171 130.978 104.512C130.296 104.853 129.714 105.365 129.29 105.999C128.188 108.006 127.701 110.293 127.889 112.575L117.774 110.941C117.643 106.412 119.211 101.998 122.17 98.568C123.608 97.0065 125.369 95.7791 127.332 94.9724C129.295 94.1657 131.411 93.7994 133.531 93.8992C135.787 93.8325 138.03 94.2573 140.105 95.1442C141.778 95.9034 143.255 97.0345 144.424 98.4513C145.521 99.841 146.316 101.444 146.758 103.159C147.254 104.879 147.503 106.661 147.497 108.45V113.742C147.497 114.987 147.497 116.271 147.497 117.633C147.427 118.811 147.205 119.975 146.836 121.095C146.479 122.197 145.926 123.226 145.202 124.13C144.387 125.119 143.364 125.916 142.206 126.465L142.051 126.931ZM171.579 103.587C170.858 103.604 170.154 103.806 169.534 104.174C168.914 104.542 168.399 105.064 168.039 105.688C166.962 107.912 166.505 110.385 166.716 112.847L156.562 111.719C156.245 106.974 157.716 102.282 160.686 98.568C162.051 97.0219 163.745 95.8003 165.643 94.9925C167.541 94.1848 169.596 93.8112 171.657 93.8992C173.757 93.697 175.876 93.9774 177.852 94.7192C179.827 95.4609 181.607 96.6443 183.056 98.179C185.49 101.479 186.701 105.523 186.48 109.618C186.578 112.242 186.277 114.866 185.585 117.399C184.826 119.954 183.823 122.429 182.589 124.792L169.089 151.365H185.818V161.014H157.146V152.182C160.024 146.735 162.839 141.314 165.588 135.919L173.952 119.656C174.806 118.166 175.373 116.53 175.625 114.831C175.865 113.143 175.982 111.44 175.975 109.734C176.029 109.087 176.029 108.436 175.975 107.789C175.911 107.115 175.698 106.464 175.353 105.883C175.047 105.284 174.591 104.774 174.03 104.404C173.32 103.888 172.456 103.628 171.579 103.665V103.587ZM225.034 147.669C225.084 149.752 224.686 151.822 223.867 153.738C223.151 155.419 222.091 156.93 220.754 158.174C219.435 159.407 217.871 160.349 216.164 160.936C212.484 162.129 208.522 162.129 204.842 160.936C203.119 160.358 201.54 159.416 200.213 158.174C198.86 156.927 197.775 155.418 197.023 153.738C196.229 151.843 195.844 149.801 195.894 147.747V108.256C195.848 106.189 196.232 104.136 197.023 102.225C197.741 100.524 198.801 98.9885 200.135 97.7121C201.484 96.4786 203.073 95.5381 204.803 94.9497C206.627 94.3023 208.548 93.9733 210.484 93.977C214.346 93.856 218.103 95.2526 220.949 97.8677C222.308 99.2486 223.358 100.903 224.029 102.721C224.7 104.539 224.976 106.479 224.839 108.412L225.034 147.669ZM214.685 107.789C214.716 107.226 214.624 106.663 214.416 106.139C214.208 105.615 213.888 105.143 213.479 104.754C213.076 104.385 212.604 104.098 212.09 103.911C211.576 103.725 211.03 103.641 210.484 103.665C209.333 103.612 208.205 104.002 207.332 104.754C206.916 105.139 206.589 105.61 206.374 106.134C206.159 106.658 206.061 107.223 206.087 107.789V147.98C206.067 148.54 206.168 149.097 206.383 149.614C206.598 150.131 206.921 150.596 207.332 150.976C208.205 151.728 209.333 152.118 210.484 152.065C211.03 152.09 211.576 152.006 212.09 151.819C212.604 151.632 213.076 151.346 213.479 150.976C213.883 150.592 214.2 150.126 214.408 149.609C214.616 149.092 214.71 148.537 214.685 147.98V107.789ZM263.744 147.669C263.783 149.726 263.385 151.768 262.577 153.661C261.861 155.341 260.801 156.852 259.464 158.096C258.145 159.33 256.581 160.271 254.874 160.859C251.194 162.051 247.232 162.051 243.552 160.859C241.833 160.272 240.256 159.33 238.923 158.096C237.648 156.854 236.63 155.373 235.927 153.738C235.152 151.838 234.768 149.8 234.799 147.747V108.256C234.771 106.191 235.155 104.141 235.927 102.225C236.623 100.524 237.679 98.9925 239.022 97.7367C240.365 96.481 241.963 95.5303 243.708 94.9497C245.532 94.3023 247.453 93.9733 249.388 93.977C253.251 93.8519 257.01 95.249 259.853 97.8677C261.213 99.2486 262.263 100.903 262.933 102.721C263.604 104.539 263.88 106.479 263.744 108.412V147.669ZM253.395 107.789C253.431 107.229 253.345 106.668 253.144 106.144C252.942 105.62 252.63 105.146 252.228 104.754C251.393 104.016 250.307 103.627 249.193 103.665C248.042 103.612 246.915 104.002 246.042 104.754C245.626 105.139 245.299 105.61 245.084 106.134C244.869 106.658 244.771 107.223 244.797 107.789V147.98C244.777 148.54 244.878 149.097 245.093 149.614C245.307 150.131 245.631 150.596 246.042 150.976C246.915 151.728 248.042 152.118 249.193 152.065C250.307 152.104 251.393 151.714 252.228 150.976C252.625 150.589 252.934 150.121 253.135 149.604C253.337 149.088 253.425 148.534 253.395 147.98V107.789ZM166.755 258.788C166.84 261.127 166.551 263.465 165.899 265.713C165.157 267.8 163.618 269.507 161.62 270.46C162.696 271.124 163.629 271.995 164.364 273.024C165.099 274.053 165.621 275.218 165.899 276.452C166.26 277.721 166.482 279.025 166.56 280.343C166.56 281.704 166.56 283.222 166.56 284.778V290.536C166.769 292.943 166.545 295.368 165.899 297.695C165.246 299.546 164.197 301.232 162.826 302.636C161.485 303.919 159.878 304.889 158.118 305.477C156.273 306.082 154.341 306.384 152.399 306.372C150.139 306.425 147.891 306.028 145.785 305.204C144.019 304.531 142.453 303.419 141.234 301.975C140.022 300.465 139.147 298.714 138.666 296.839C138.075 294.818 137.786 292.72 137.81 290.614V286.023C137.81 284.506 137.81 282.988 137.81 281.51C137.938 280.031 138.225 278.57 138.666 277.152C138.992 275.896 139.517 274.701 140.222 273.612C140.984 272.515 141.964 271.588 143.101 270.888C142.064 270.483 141.151 269.812 140.456 268.943C139.803 268.09 139.278 267.146 138.899 266.141C138.509 265.195 138.247 264.201 138.121 263.185C138.074 262.342 138.074 261.498 138.121 260.656V252.874C137.996 250.934 138.285 248.99 138.97 247.17C139.654 245.35 140.718 243.697 142.091 242.321C143.464 240.944 145.114 239.876 146.931 239.187C148.749 238.497 150.692 238.203 152.633 238.323C154.595 238.183 156.565 238.457 158.415 239.127C160.265 239.798 161.953 240.849 163.37 242.214C166.142 245.447 167.538 249.636 167.261 253.886L166.755 258.788ZM156.523 253.069C156.563 251.812 156.21 250.574 155.512 249.528C155.118 249.039 154.611 248.653 154.035 248.402C153.459 248.151 152.831 248.044 152.205 248.089C151.095 248.076 150.018 248.463 149.17 249.178C148.733 249.526 148.383 249.971 148.147 250.477C147.911 250.983 147.795 251.537 147.809 252.096V262.679C147.787 263.234 147.896 263.787 148.125 264.294C148.355 264.801 148.699 265.247 149.131 265.597C149.984 266.33 151.08 266.719 152.205 266.686C153.345 266.745 154.462 266.354 155.317 265.597C155.711 265.222 156.022 264.768 156.229 264.266C156.437 263.763 156.537 263.222 156.523 262.679V253.069ZM156.523 279.837C156.532 278.575 156.224 277.331 155.628 276.218C155.268 275.653 154.756 275.199 154.151 274.91C153.545 274.622 152.871 274.509 152.205 274.584C151.539 274.513 150.866 274.628 150.262 274.917C149.657 275.205 149.145 275.656 148.781 276.218C148.125 277.31 147.788 278.563 147.809 279.837V292.404C147.787 292.965 147.895 293.524 148.125 294.037C148.354 294.55 148.699 295.003 149.131 295.361C149.966 296.133 151.068 296.551 152.205 296.528C152.775 296.553 153.345 296.463 153.88 296.262C154.415 296.062 154.904 295.755 155.317 295.361C155.716 294.981 156.03 294.521 156.237 294.012C156.445 293.502 156.543 292.954 156.523 292.404V279.837ZM205.659 292.093C205.698 294.15 205.301 296.192 204.492 298.084C203.774 299.764 202.71 301.272 201.369 302.513C200.028 303.753 198.441 304.697 196.711 305.282C194.905 305.881 193.013 306.183 191.109 306.177C189.165 306.257 187.22 306.02 185.351 305.477C183.621 304.891 182.034 303.947 180.694 302.707C179.353 301.467 178.289 299.958 177.57 298.279C176.762 296.387 176.364 294.344 176.403 292.287V252.718C176.369 250.649 176.767 248.595 177.57 246.688C178.261 244.971 179.324 243.43 180.683 242.175C182.021 240.91 183.612 239.942 185.351 239.334C187.188 238.684 189.122 238.355 191.07 238.362C194.921 238.243 198.665 239.64 201.497 242.252C202.856 243.633 203.906 245.288 204.577 247.106C205.247 248.923 205.524 250.863 205.387 252.796L205.659 292.093ZM195.35 252.252C195.381 251.689 195.289 251.126 195.08 250.602C194.872 250.078 194.553 249.605 194.144 249.217C193.313 248.472 192.224 248.081 191.109 248.127C189.96 248.087 188.837 248.475 187.958 249.217C187.542 249.602 187.215 250.072 187 250.597C186.785 251.121 186.687 251.686 186.713 252.252V292.443C186.693 293.002 186.793 293.56 187.008 294.077C187.223 294.594 187.547 295.058 187.958 295.439C188.833 296.191 189.955 296.593 191.109 296.567C192.229 296.599 193.317 296.194 194.144 295.439C194.547 295.055 194.864 294.589 195.072 294.072C195.28 293.555 195.375 292.999 195.35 292.443V252.252ZM244.369 292.132C244.4 294.184 244.017 296.222 243.241 298.123C242.512 299.806 241.439 301.317 240.09 302.559C238.777 303.801 237.211 304.743 235.499 305.321C233.692 305.92 231.8 306.222 229.897 306.216C227.989 306.271 226.085 306.021 224.256 305.477C222.548 304.889 220.984 303.948 219.665 302.714C218.316 301.481 217.254 299.967 216.553 298.279C215.744 296.387 215.347 294.344 215.385 292.287V252.718C215.352 250.649 215.749 248.595 216.553 246.688C217.243 244.971 218.306 243.43 219.665 242.175C220.987 240.927 222.549 239.96 224.256 239.334C226.092 238.684 228.027 238.355 229.975 238.362C233.838 238.241 237.594 239.637 240.44 242.252C241.799 243.633 242.849 245.288 243.52 247.106C244.191 248.923 244.467 250.863 244.33 252.796L244.369 292.132ZM234.06 252.252C234.09 251.689 233.999 251.126 233.79 250.602C233.582 250.078 233.262 249.605 232.854 249.217C232.45 248.847 231.978 248.561 231.464 248.374C230.95 248.187 230.404 248.103 229.858 248.127C228.707 248.075 227.58 248.465 226.707 249.217C226.291 249.602 225.964 250.072 225.749 250.597C225.534 251.121 225.436 251.686 225.462 252.252V292.443C225.441 293.002 225.542 293.56 225.757 294.077C225.972 294.594 226.296 295.058 226.707 295.439C227.574 296.205 228.702 296.609 229.858 296.567C230.966 296.601 232.043 296.195 232.854 295.439C233.257 295.055 233.574 294.589 233.782 294.072C233.99 293.555 234.085 292.999 234.06 292.443V252.252ZM18.4902 170.235L17.7899 177.083L50.2751 180.351L50.9754 173.387L18.4902 170.235ZM364 175.721L363.222 168.757L330.776 172.297L331.515 179.262L364 175.721ZM356.998 140.043L354.819 133.39L323.695 143.623L325.874 150.276L356.998 140.043ZM342.759 106.583L339.218 100.552L311.013 117.01L314.553 123.041L342.759 106.583ZM321.867 76.8189L317.159 71.6442L293 93.6268L297.707 98.8015L321.867 76.8189ZM295.295 52.0739L289.615 48.1832L270.513 74.7179L276.193 78.8032L295.295 52.0739ZM264.172 33.3984L257.714 30.5971L244.564 60.3612L250.983 63.1625L264.172 33.3984ZM229.741 21.4539L222.933 20.0533L216.241 52.1906L223.089 53.6302L229.741 21.4539ZM193.716 17.252H186.713V49.934H193.716V17.252ZM157.535 20.4813L150.687 21.9597L157.612 53.9026L164.46 52.5797L157.535 20.4813ZM122.793 31.1418L116.452 34.0599L129.835 63.8628L136.215 60.9837L122.793 31.1418ZM91.047 48.689L85.4447 52.9688L104.897 79.3479L110.538 75.2237L91.047 48.689ZM63.8139 72.578L59.1842 77.7916L83.4995 99.5796L88.0902 94.5217L63.8139 72.578ZM41.9885 101.681L38.5649 107.711L66.8873 123.974L70.3498 117.866L41.9885 101.681ZM26.5823 134.791L24.4815 141.444L55.605 151.443L57.7448 144.751L26.5823 134.791ZM363.3 212.294L364 205.329L331.515 202.022L330.776 208.987L363.3 212.294ZM17.7899 206.808L18.568 213.733L51.0143 210.193L50.2362 203.228L17.7899 206.808ZM24.7927 242.486L26.9714 249.1L58.0949 238.906L55.9163 232.253L24.7927 242.486ZM39.0317 275.946L42.5331 281.977L70.7388 265.519L67.2374 259.449L39.0317 275.946ZM59.8845 305.671L64.7476 310.846L88.9461 288.863L84.1998 283.689L59.8845 305.671ZM86.4951 330.416L92.1752 334.307L111.433 308.006L105.714 303.881L86.4951 330.416ZM117.619 349.131L124.038 351.932L137.188 322.012L130.885 319.172L117.619 349.131ZM151.971 360.803L158.818 362.242L165.471 330.222L158.663 328.821L151.971 360.803ZM188.036 365.199H195.038V332.478H188.036V365.199ZM224.217 361.97L231.025 360.453L224.256 328.588L217.409 330.105L224.217 361.97ZM258.92 351.27L265.3 348.391L251.917 318.588L245.498 321.468L258.92 351.27ZM290.666 333.607L296.307 329.444L276.854 303.064L271.174 307.227L290.666 333.607ZM317.899 309.679L322.528 304.465L298.174 282.677L293.506 287.93L317.899 309.679ZM339.685 280.615L343.148 274.545L315.02 258.399L311.518 264.468L339.685 280.615ZM355.013 247.622L357.114 240.968L325.991 231.008L323.851 237.661L355.013 247.622ZM109.877 211.866C108.716 210.656 107.806 209.23 107.198 207.667C106.59 206.105 106.298 204.438 106.336 202.762C106.283 201.09 106.569 199.424 107.178 197.866C107.786 196.308 108.704 194.889 109.877 193.696C111.107 192.493 112.569 191.552 114.174 190.93C115.779 190.308 117.494 190.018 119.214 190.078C120.935 190.006 122.653 190.291 124.26 190.913C125.866 191.536 127.327 192.483 128.551 193.696C129.748 194.875 130.688 196.289 131.311 197.849C131.934 199.41 132.226 201.082 132.169 202.762C132.22 204.446 131.925 206.123 131.303 207.688C130.68 209.254 129.744 210.676 128.551 211.866C127.32 213.066 125.857 214.003 124.251 214.618C122.646 215.233 120.932 215.515 119.214 215.445C117.498 215.495 115.79 215.204 114.187 214.59C112.585 213.975 111.12 213.05 109.877 211.866ZM110.927 202.762C110.881 203.893 111.061 205.023 111.455 206.085C111.849 207.147 112.45 208.12 113.222 208.948C114.84 210.512 117.002 211.386 119.253 211.386C121.503 211.386 123.665 210.512 125.283 208.948C126.798 207.228 127.634 205.015 127.634 202.723C127.634 200.431 126.798 198.217 125.283 196.498C123.68 194.95 121.539 194.085 119.311 194.085C117.083 194.085 114.942 194.95 113.339 196.498C112.528 197.32 111.896 198.3 111.481 199.378C111.066 200.456 110.877 201.608 110.927 202.762ZM157.146 176.577L159.48 180.001C158.705 181.112 157.604 181.955 156.329 182.413C154.86 182.912 153.35 183.277 151.816 183.503C150.208 183.736 148.638 184.181 147.147 184.825C143.257 186.537 141.428 190.428 141 196.498C141.888 194.848 143.241 193.495 144.891 192.607C146.617 191.569 148.596 191.031 150.61 191.051C152.132 190.974 153.654 191.227 155.07 191.79C156.486 192.354 157.765 193.217 158.818 194.319C160.94 196.689 162.08 199.776 162.009 202.956C162.039 204.593 161.745 206.219 161.144 207.741C160.543 209.264 159.647 210.652 158.507 211.827C157.352 213.023 155.959 213.964 154.418 214.587C152.876 215.21 151.221 215.503 149.559 215.445C147.804 215.545 146.05 215.246 144.426 214.573C142.803 213.899 141.352 212.867 140.183 211.555C137.687 208.403 136.44 204.441 136.682 200.427C136.682 189.922 139.677 183.425 145.669 180.974C147.151 180.246 148.72 179.71 150.337 179.378L153.372 178.795C154.044 178.615 154.695 178.367 155.317 178.056C156.028 177.704 156.653 177.199 157.146 176.577ZM141.273 201.128C141.145 203.803 141.942 206.44 143.529 208.598C144.219 209.493 145.111 210.214 146.132 210.7C147.152 211.187 148.273 211.426 149.404 211.399C150.47 211.43 151.532 211.235 152.518 210.826C153.503 210.417 154.391 209.803 155.123 209.026C155.864 208.249 156.444 207.334 156.832 206.332C157.219 205.331 157.405 204.263 157.379 203.19C157.481 200.996 156.728 198.848 155.278 197.198C154.553 196.43 153.669 195.83 152.688 195.44C151.707 195.051 150.652 194.88 149.598 194.941C147.608 194.865 145.659 195.515 144.113 196.77C142.694 197.854 141.691 199.392 141.273 201.128ZM165.899 226.106L162.514 224.861L180.449 176.577L183.795 177.822L165.899 226.106ZM190.37 214.901H186.207V190.623H190.098L199.435 202.645L208.266 190.623H212.156V214.901H207.799V197.198L199.396 208.481L190.681 197.198L190.37 214.901ZM238.261 196.809L224.256 214.901H219.937V190.623H224.256V208.675L238.261 190.623H242.58V214.901H238.261V196.809ZM272.497 214.901H268.179V204.629H254.679V214.901H250.399V190.623H254.679V200.427H268.179V190.623H272.497V214.901Z" fill="white"/>
<path d="M378.629 190.078C378.629 152.879 367.599 116.517 346.934 85.5873C326.269 54.6581 296.898 30.5518 262.534 16.3166C228.169 2.08149 190.356 -1.64307 153.875 5.61394C117.394 12.871 83.8845 30.7836 57.5832 57.0867C31.282 83.3898 13.3707 116.902 6.11417 153.385C-1.14232 189.869 2.58197 227.685 16.8161 262.052C31.0502 296.418 55.1548 325.792 86.0818 346.458C117.009 367.125 153.369 378.155 190.565 378.155C240.423 378.093 288.222 358.258 323.478 323C358.733 287.742 378.567 239.94 378.629 190.078ZM8.33624 190.078C8.33624 154.034 19.0237 118.799 39.0472 88.8297C59.0708 58.8602 87.5309 35.5019 120.829 21.7085C154.127 7.91505 190.767 4.30606 226.116 11.3379C261.464 18.3697 293.934 35.7265 319.419 61.2134C344.905 86.7004 362.26 119.173 369.291 154.524C376.323 189.875 372.714 226.518 358.922 259.818C345.129 293.119 321.772 321.581 291.805 341.606C261.838 361.631 226.606 372.319 190.565 372.319C142.25 372.268 95.9298 353.051 61.7665 318.885C27.6033 284.719 8.38773 238.395 8.33624 190.078V190.078Z" fill="white"/>
</svg>
